M48
; DRILL file {KiCad (5.1.10)-1} date 06/07/21 21:45:34
; FORMAT={-:-/ absolute / metric / decimal}
; #@! TF.CreationDate,2021-06-07T21:45:34+02:00
; #@! TF.GenerationSoftware,Kicad,Pcbnew,(5.1.10)-1
; #@! TF.FileFunction,Plated,1,2,PTH
FMAT,2
METRIC
T1C0.400
T2C0.600
T3C1.000
T4C1.020
T5C1.100
T6C2.100
T7C3.200
%
G90
G05
T1
X88.9Y-67.31
X90.17Y-60.96
X94.56Y-79.32
X95.25Y-46.99
X95.25Y-58.42
X95.25Y-64.135
X97.79Y-81.28
X97.79Y-91.44
X100.33Y-91.44
X101.6Y-53.34
X101.6Y-60.96
X102.87Y-24.13
X102.87Y-81.28
X103.505Y-57.785
X104.14Y-53.975
X104.14Y-81.28
X107.95Y-59.69
X108.585Y-61.595
X109.855Y-90.17
X110.49Y-63.5
X110.49Y-74.93
X114.935Y-54.61
X116.205Y-87.63
X116.205Y-90.805
X116.84Y-57.15
X116.84Y-99.06
X117.475Y-38.1
X118.11Y-39.37
X118.11Y-41.91
X118.11Y-55.88
X118.11Y-60.96
X119.38Y-38.1
X119.38Y-54.61
X122.555Y-98.425
X124.46Y-43.18
X124.46Y-59.69
X124.46Y-63.5
X124.46Y-69.85
X129.54Y-43.18
X129.54Y-44.45
X133.35Y-63.5
X133.35Y-69.85
X135.89Y-54.61
X135.89Y-69.85
X137.16Y-48.26
X139.7Y-34.29
X143.51Y-34.29
X144.78Y-20.32
X146.05Y-48.26
X160.02Y-30.48
X160.02Y-35.56
T2
X88.9Y-33.655
X88.9Y-45.72
X95.25Y-33.655
X95.25Y-50.8
X95.885Y-94.615
X99.06Y-94.615
X101.6Y-95.25
X121.92Y-59.69
X147.32Y-25.4
X151.13Y-17.78
X153.035Y-25.4
X158.115Y-17.78
T3
X93.98Y-90.17
X93.98Y-97.79
X96.52Y-90.17
X96.52Y-97.79
X99.06Y-90.17
X99.06Y-97.79
X101.6Y-90.17
X101.6Y-97.79
X104.14Y-90.17
X104.14Y-97.79
X106.68Y-19.05
X106.68Y-21.59
X106.68Y-24.13
X106.68Y-26.67
X106.68Y-29.21
X106.68Y-31.75
X106.68Y-34.29
X106.68Y-36.83
X106.68Y-39.37
X106.68Y-41.91
X106.68Y-44.45
X106.68Y-46.99
X106.68Y-49.53
X106.68Y-52.07
X106.68Y-54.61
X113.03Y-81.28
X121.92Y-19.05
X121.92Y-21.59
X121.92Y-24.13
X121.92Y-26.67
X121.92Y-29.21
X121.92Y-31.75
X121.92Y-34.29
X121.92Y-36.83
X121.92Y-39.37
X121.92Y-41.91
X121.92Y-44.45
X121.92Y-46.99
X121.92Y-49.53
X121.92Y-52.07
X121.92Y-54.61
X123.19Y-94.02
X123.19Y-96.52
X125.69Y-94.02
X125.69Y-96.52
X128.19Y-94.02
X128.19Y-96.52
X129.54Y-30.48
X132.08Y-30.48
X134.62Y-30.48
X142.24Y-17.78
X142.24Y-20.32
X142.24Y-22.86
X142.24Y-25.4
X142.24Y-27.94
X142.24Y-30.48
X147.32Y-69.64
X149.86Y-69.64
X152.4Y-69.64
X154.94Y-69.64
X157.48Y-69.64
X160.02Y-69.64
X162.56Y-17.78
X162.56Y-20.32
X162.56Y-22.86
X162.56Y-25.4
X162.56Y-27.94
X162.56Y-30.48
T4
X93.21Y-73.66
X95.75Y-73.66
X98.29Y-73.66
X103.37Y-73.66
X105.91Y-73.66
X108.45Y-73.66
X113.53Y-73.66
X116.07Y-73.66
X118.61Y-73.66
T5
X92.71Y-54.61
X95.25Y-54.61
X97.79Y-54.61
X129.54Y-40.64
X132.08Y-40.64
X134.62Y-40.64
X143.51Y-40.64
X146.05Y-40.64
X148.59Y-40.64
X157.48Y-40.64
X160.02Y-40.64
X162.56Y-40.64
T6
X120.94Y-90.72
X130.44Y-90.72
T7
X83.82Y-15.24
X83.82Y-104.14
X168.91Y-15.24
X168.91Y-104.14
T3
G00X90.35Y-24.3
M15
G01X90.35Y-22.6
M16
G05
G00X96.1Y-20.4
M15
G01X94.4Y-20.4
M16
G05
G00X96.35Y-26.4
M15
G01X94.15Y-26.4
M16
G05
T0
M30
