%TF.GenerationSoftware,KiCad,Pcbnew,(5.1.10)-1*%
%TF.CreationDate,2021-06-07T21:45:38+02:00*%
%TF.ProjectId,SteuerungPCB,53746575-6572-4756-9e67-5043422e6b69,rev?*%
%TF.SameCoordinates,Original*%
%TF.FileFunction,Other,Fab,Top*%
%FSLAX46Y46*%
G04 Gerber Fmt 4.6, Leading zero omitted, Abs format (unit mm)*
G04 Created by KiCad (PCBNEW (5.1.10)-1) date 2021-06-07 21:45:38*
%MOMM*%
%LPD*%
G01*
G04 APERTURE LIST*
%ADD10C,0.203200*%
%ADD11C,0.100000*%
%ADD12C,0.015000*%
%ADD13C,0.150000*%
%ADD14C,0.080000*%
G04 APERTURE END LIST*
D10*
%TO.C,Vin1*%
X92723000Y-26100000D02*
X97777000Y-26100000D01*
X90850000Y-20800000D02*
X90850000Y-26100000D01*
D11*
%TO.C,RV1*%
X131740000Y-92380000D02*
X119640000Y-92380000D01*
X119640000Y-92380000D02*
X119640000Y-101520000D01*
X119640000Y-101520000D02*
X131740000Y-101520000D01*
X131740000Y-101520000D02*
X131740000Y-92380000D01*
X130190000Y-101520000D02*
X121190000Y-101520000D01*
X121190000Y-101520000D02*
X121190000Y-106520000D01*
X121190000Y-106520000D02*
X130190000Y-106520000D01*
X130190000Y-106520000D02*
X130190000Y-101520000D01*
X128690000Y-106520000D02*
X122690000Y-106520000D01*
%TO.C,USR-ES1_W5500*%
X140970000Y-17780000D02*
X142240000Y-16510000D01*
X140970000Y-31750000D02*
X140970000Y-17780000D01*
X163830000Y-31750000D02*
X140970000Y-31750000D01*
X163830000Y-16510000D02*
X163830000Y-31750000D01*
X142240000Y-16510000D02*
X163830000Y-16510000D01*
%TO.C,U2*%
X92560000Y-88980000D02*
X105560000Y-88980000D01*
X105560000Y-88980000D02*
X105560000Y-98980000D01*
X105560000Y-98980000D02*
X93560000Y-98980000D01*
X93560000Y-98980000D02*
X92560000Y-97980000D01*
X92560000Y-97980000D02*
X92560000Y-88980000D01*
%TO.C,R11*%
X112405000Y-65770000D02*
X112405000Y-63770000D01*
X113655000Y-65770000D02*
X112405000Y-65770000D01*
X113655000Y-63770000D02*
X113655000Y-65770000D01*
X112405000Y-63770000D02*
X113655000Y-63770000D01*
%TO.C,R10*%
X93335000Y-63770000D02*
X93335000Y-65770000D01*
X92085000Y-63770000D02*
X93335000Y-63770000D01*
X92085000Y-65770000D02*
X92085000Y-63770000D01*
X93335000Y-65770000D02*
X92085000Y-65770000D01*
%TO.C,R9*%
X103495000Y-63770000D02*
X103495000Y-65770000D01*
X102245000Y-63770000D02*
X103495000Y-63770000D01*
X102245000Y-65770000D02*
X102245000Y-63770000D01*
X103495000Y-65770000D02*
X102245000Y-65770000D01*
%TO.C,R8*%
X112405000Y-93075000D02*
X112405000Y-91075000D01*
X113655000Y-93075000D02*
X112405000Y-93075000D01*
X113655000Y-91075000D02*
X113655000Y-93075000D01*
X112405000Y-91075000D02*
X113655000Y-91075000D01*
%TO.C,R7*%
X102225000Y-83177500D02*
X102225000Y-85177500D01*
X100975000Y-83177500D02*
X102225000Y-83177500D01*
X100975000Y-85177500D02*
X100975000Y-83177500D01*
X102225000Y-85177500D02*
X100975000Y-85177500D01*
%TO.C,R6*%
X104765000Y-83177500D02*
X104765000Y-85177500D01*
X103515000Y-83177500D02*
X104765000Y-83177500D01*
X103515000Y-85177500D02*
X103515000Y-83177500D01*
X104765000Y-85177500D02*
X103515000Y-85177500D01*
%TO.C,R5*%
X110480000Y-91075000D02*
X110480000Y-93075000D01*
X109230000Y-91075000D02*
X110480000Y-91075000D01*
X109230000Y-93075000D02*
X109230000Y-91075000D01*
X110480000Y-93075000D02*
X109230000Y-93075000D01*
%TO.C,R4*%
X88275000Y-89265000D02*
X88275000Y-87265000D01*
X89525000Y-89265000D02*
X88275000Y-89265000D01*
X89525000Y-87265000D02*
X89525000Y-89265000D01*
X88275000Y-87265000D02*
X89525000Y-87265000D01*
%TO.C,R3*%
X85100000Y-89265000D02*
X85100000Y-87265000D01*
X86350000Y-89265000D02*
X85100000Y-89265000D01*
X86350000Y-87265000D02*
X86350000Y-89265000D01*
X85100000Y-87265000D02*
X86350000Y-87265000D01*
%TO.C,R2*%
X94605000Y-83177500D02*
X94605000Y-85177500D01*
X93355000Y-83177500D02*
X94605000Y-83177500D01*
X93355000Y-85177500D02*
X93355000Y-83177500D01*
X94605000Y-85177500D02*
X93355000Y-85177500D01*
%TO.C,R1*%
X95895000Y-85177500D02*
X95895000Y-83177500D01*
X97145000Y-85177500D02*
X95895000Y-85177500D01*
X97145000Y-83177500D02*
X97145000Y-85177500D01*
X95895000Y-83177500D02*
X97145000Y-83177500D01*
%TO.C,U1*%
X97100000Y-37950000D02*
G75*
G03*
X97100000Y-37950000I-1850000J0D01*
G01*
X100250000Y-41550000D02*
X100250000Y-35150000D01*
X100250000Y-35150000D02*
X90250000Y-35150000D01*
X90250000Y-35150000D02*
X90250000Y-41550000D01*
X90250000Y-41550000D02*
X100250000Y-41550000D01*
X100250000Y-50800000D02*
X100250000Y-41550000D01*
X100250000Y-41550000D02*
X90250000Y-41550000D01*
X90250000Y-41550000D02*
X90250000Y-50800000D01*
X90250000Y-50800000D02*
X100250000Y-50800000D01*
X97790000Y-50800000D02*
X97790000Y-54610000D01*
X95250000Y-50800000D02*
X95250000Y-54610000D01*
X92710000Y-50800000D02*
X92710000Y-54610000D01*
%TO.C,Q3*%
X161870000Y-57300000D02*
G75*
G03*
X161870000Y-57300000I-1850000J0D01*
G01*
X155020000Y-53700000D02*
X155020000Y-60100000D01*
X155020000Y-60100000D02*
X165020000Y-60100000D01*
X165020000Y-60100000D02*
X165020000Y-53700000D01*
X165020000Y-53700000D02*
X155020000Y-53700000D01*
X155020000Y-44450000D02*
X155020000Y-53700000D01*
X155020000Y-53700000D02*
X165020000Y-53700000D01*
X165020000Y-53700000D02*
X165020000Y-44450000D01*
X165020000Y-44450000D02*
X155020000Y-44450000D01*
X157480000Y-44450000D02*
X157480000Y-40640000D01*
X160020000Y-44450000D02*
X160020000Y-40640000D01*
X162560000Y-44450000D02*
X162560000Y-40640000D01*
%TO.C,Q2*%
X147900000Y-57300000D02*
G75*
G03*
X147900000Y-57300000I-1850000J0D01*
G01*
X141050000Y-53700000D02*
X141050000Y-60100000D01*
X141050000Y-60100000D02*
X151050000Y-60100000D01*
X151050000Y-60100000D02*
X151050000Y-53700000D01*
X151050000Y-53700000D02*
X141050000Y-53700000D01*
X141050000Y-44450000D02*
X141050000Y-53700000D01*
X141050000Y-53700000D02*
X151050000Y-53700000D01*
X151050000Y-53700000D02*
X151050000Y-44450000D01*
X151050000Y-44450000D02*
X141050000Y-44450000D01*
X143510000Y-44450000D02*
X143510000Y-40640000D01*
X146050000Y-44450000D02*
X146050000Y-40640000D01*
X148590000Y-44450000D02*
X148590000Y-40640000D01*
%TO.C,Q1*%
X133930000Y-57300000D02*
G75*
G03*
X133930000Y-57300000I-1850000J0D01*
G01*
X127080000Y-53700000D02*
X127080000Y-60100000D01*
X127080000Y-60100000D02*
X137080000Y-60100000D01*
X137080000Y-60100000D02*
X137080000Y-53700000D01*
X137080000Y-53700000D02*
X127080000Y-53700000D01*
X127080000Y-44450000D02*
X127080000Y-53700000D01*
X127080000Y-53700000D02*
X137080000Y-53700000D01*
X137080000Y-53700000D02*
X137080000Y-44450000D01*
X137080000Y-44450000D02*
X127080000Y-44450000D01*
X129540000Y-44450000D02*
X129540000Y-40640000D01*
X132080000Y-44450000D02*
X132080000Y-40640000D01*
X134620000Y-44450000D02*
X134620000Y-40640000D01*
%TO.C,M3*%
X119880000Y-76960000D02*
X112280000Y-76960000D01*
X119880000Y-71110000D02*
X119880000Y-76960000D01*
X112280000Y-71110000D02*
X119880000Y-71110000D01*
X112280000Y-76960000D02*
X112280000Y-71110000D01*
X113530000Y-75960000D02*
X113530000Y-76960000D01*
X118580000Y-75960000D02*
X113530000Y-75960000D01*
X118580000Y-76960000D02*
X118580000Y-75960000D01*
%TO.C,U3*%
X129240000Y-30480000D02*
X129840000Y-30480000D01*
X129240000Y-28960000D02*
X129240000Y-30480000D01*
X129840000Y-30480000D02*
X129840000Y-28960000D01*
X131780000Y-30480000D02*
X132380000Y-30480000D01*
X131780000Y-28960000D02*
X131780000Y-30480000D01*
X132380000Y-30480000D02*
X132380000Y-28960000D01*
X134320000Y-30480000D02*
X134920000Y-30480000D01*
X134320000Y-28960000D02*
X134320000Y-30480000D01*
X134920000Y-30480000D02*
X134920000Y-28960000D01*
X128270000Y-20450000D02*
X135890000Y-20450000D01*
X128270000Y-28960000D02*
X128270000Y-20450000D01*
X134920000Y-28960000D02*
X128270000Y-28960000D01*
X135890000Y-27990000D02*
X134920000Y-28960000D01*
X135890000Y-20450000D02*
X135890000Y-27990000D01*
%TO.C,M2*%
X109720000Y-76960000D02*
X102120000Y-76960000D01*
X109720000Y-71110000D02*
X109720000Y-76960000D01*
X102120000Y-71110000D02*
X109720000Y-71110000D01*
X102120000Y-76960000D02*
X102120000Y-71110000D01*
X103370000Y-75960000D02*
X103370000Y-76960000D01*
X108420000Y-75960000D02*
X103370000Y-75960000D01*
X108420000Y-76960000D02*
X108420000Y-75960000D01*
%TO.C,M1*%
X99560000Y-76960000D02*
X91960000Y-76960000D01*
X99560000Y-71110000D02*
X99560000Y-76960000D01*
X91960000Y-71110000D02*
X99560000Y-71110000D01*
X91960000Y-76960000D02*
X91960000Y-71110000D01*
X93210000Y-75960000D02*
X93210000Y-76960000D01*
X98260000Y-75960000D02*
X93210000Y-75960000D01*
X98260000Y-76960000D02*
X98260000Y-75960000D01*
%TO.C,J1*%
X160320000Y-69640000D02*
X159720000Y-69640000D01*
X160320000Y-71160000D02*
X160320000Y-69640000D01*
X159720000Y-69640000D02*
X159720000Y-71160000D01*
X157780000Y-69640000D02*
X157180000Y-69640000D01*
X157780000Y-71160000D02*
X157780000Y-69640000D01*
X157180000Y-69640000D02*
X157180000Y-71160000D01*
X155240000Y-69640000D02*
X154640000Y-69640000D01*
X155240000Y-71160000D02*
X155240000Y-69640000D01*
X154640000Y-69640000D02*
X154640000Y-71160000D01*
X152700000Y-69640000D02*
X152100000Y-69640000D01*
X152700000Y-71160000D02*
X152700000Y-69640000D01*
X152100000Y-69640000D02*
X152100000Y-71160000D01*
X150160000Y-69640000D02*
X149560000Y-69640000D01*
X150160000Y-71160000D02*
X150160000Y-69640000D01*
X149560000Y-69640000D02*
X149560000Y-71160000D01*
X147620000Y-69640000D02*
X147020000Y-69640000D01*
X147620000Y-71160000D02*
X147620000Y-69640000D01*
X147020000Y-69640000D02*
X147020000Y-71160000D01*
X161290000Y-79670000D02*
X146050000Y-79670000D01*
X161290000Y-71160000D02*
X161290000Y-79670000D01*
X147020000Y-71160000D02*
X161290000Y-71160000D01*
X146050000Y-72130000D02*
X147020000Y-71160000D01*
X146050000Y-79670000D02*
X146050000Y-72130000D01*
%TO.C,A1*%
X118110000Y-22860000D02*
X110490000Y-22860000D01*
X110490000Y-22860000D02*
X110490000Y-12700000D01*
X110490000Y-12700000D02*
X118110000Y-12700000D01*
X118110000Y-12700000D02*
X118110000Y-22860000D01*
X105410000Y-15240000D02*
X123190000Y-15240000D01*
X123190000Y-15240000D02*
X123190000Y-57150000D01*
X123190000Y-57150000D02*
X121920000Y-58420000D01*
X121920000Y-58420000D02*
X105410000Y-58420000D01*
X105410000Y-58420000D02*
X105410000Y-15240000D01*
%TD*%
%TO.C,Vin1*%
D12*
X98194523Y-17462380D02*
X98194523Y-16462380D01*
X98765952Y-17462380D01*
X98765952Y-16462380D01*
X99242142Y-16938571D02*
X99575476Y-16938571D01*
X99718333Y-17462380D02*
X99242142Y-17462380D01*
X99242142Y-16462380D01*
X99718333Y-16462380D01*
X100480238Y-16938571D02*
X100623095Y-16986190D01*
X100670714Y-17033809D01*
X100718333Y-17129047D01*
X100718333Y-17271904D01*
X100670714Y-17367142D01*
X100623095Y-17414761D01*
X100527857Y-17462380D01*
X100146904Y-17462380D01*
X100146904Y-16462380D01*
X100480238Y-16462380D01*
X100575476Y-16510000D01*
X100623095Y-16557619D01*
X100670714Y-16652857D01*
X100670714Y-16748095D01*
X100623095Y-16843333D01*
X100575476Y-16890952D01*
X100480238Y-16938571D01*
X100146904Y-16938571D01*
X101099285Y-16557619D02*
X101146904Y-16510000D01*
X101242142Y-16462380D01*
X101480238Y-16462380D01*
X101575476Y-16510000D01*
X101623095Y-16557619D01*
X101670714Y-16652857D01*
X101670714Y-16748095D01*
X101623095Y-16890952D01*
X101051666Y-17462380D01*
X101670714Y-17462380D01*
X102623095Y-17462380D02*
X102051666Y-17462380D01*
X102337380Y-17462380D02*
X102337380Y-16462380D01*
X102242142Y-16605238D01*
X102146904Y-16700476D01*
X102051666Y-16748095D01*
X103623095Y-17462380D02*
X103289761Y-16986190D01*
X103051666Y-17462380D02*
X103051666Y-16462380D01*
X103432619Y-16462380D01*
X103527857Y-16510000D01*
X103575476Y-16557619D01*
X103623095Y-16652857D01*
X103623095Y-16795714D01*
X103575476Y-16890952D01*
X103527857Y-16938571D01*
X103432619Y-16986190D01*
X103051666Y-16986190D01*
%TO.C,RV1*%
D13*
X118042380Y-97996190D02*
X117566190Y-98329523D01*
X118042380Y-98567619D02*
X117042380Y-98567619D01*
X117042380Y-98186666D01*
X117090000Y-98091428D01*
X117137619Y-98043809D01*
X117232857Y-97996190D01*
X117375714Y-97996190D01*
X117470952Y-98043809D01*
X117518571Y-98091428D01*
X117566190Y-98186666D01*
X117566190Y-98567619D01*
X118137619Y-97805714D02*
X118137619Y-97043809D01*
X118042380Y-96805714D02*
X117042380Y-96805714D01*
X117042380Y-96424761D01*
X117090000Y-96329523D01*
X117137619Y-96281904D01*
X117232857Y-96234285D01*
X117375714Y-96234285D01*
X117470952Y-96281904D01*
X117518571Y-96329523D01*
X117566190Y-96424761D01*
X117566190Y-96805714D01*
X117042380Y-95615238D02*
X117042380Y-95424761D01*
X117090000Y-95329523D01*
X117185238Y-95234285D01*
X117375714Y-95186666D01*
X117709047Y-95186666D01*
X117899523Y-95234285D01*
X117994761Y-95329523D01*
X118042380Y-95424761D01*
X118042380Y-95615238D01*
X117994761Y-95710476D01*
X117899523Y-95805714D01*
X117709047Y-95853333D01*
X117375714Y-95853333D01*
X117185238Y-95805714D01*
X117090000Y-95710476D01*
X117042380Y-95615238D01*
X117042380Y-94900952D02*
X117042380Y-94329523D01*
X118042380Y-94615238D02*
X117042380Y-94615238D01*
X126142380Y-97545238D02*
X125666190Y-97878571D01*
X126142380Y-98116666D02*
X125142380Y-98116666D01*
X125142380Y-97735714D01*
X125190000Y-97640476D01*
X125237619Y-97592857D01*
X125332857Y-97545238D01*
X125475714Y-97545238D01*
X125570952Y-97592857D01*
X125618571Y-97640476D01*
X125666190Y-97735714D01*
X125666190Y-98116666D01*
X125142380Y-97259523D02*
X126142380Y-96926190D01*
X125142380Y-96592857D01*
X126142380Y-95735714D02*
X126142380Y-96307142D01*
X126142380Y-96021428D02*
X125142380Y-96021428D01*
X125285238Y-96116666D01*
X125380476Y-96211904D01*
X125428095Y-96307142D01*
%TO.C,USR-ES1_W5500*%
X135867142Y-33167142D02*
X135819523Y-33214761D01*
X135676666Y-33262380D01*
X135581428Y-33262380D01*
X135438571Y-33214761D01*
X135343333Y-33119523D01*
X135295714Y-33024285D01*
X135248095Y-32833809D01*
X135248095Y-32690952D01*
X135295714Y-32500476D01*
X135343333Y-32405238D01*
X135438571Y-32310000D01*
X135581428Y-32262380D01*
X135676666Y-32262380D01*
X135819523Y-32310000D01*
X135867142Y-32357619D01*
X136438571Y-33262380D02*
X136343333Y-33214761D01*
X136295714Y-33167142D01*
X136248095Y-33071904D01*
X136248095Y-32786190D01*
X136295714Y-32690952D01*
X136343333Y-32643333D01*
X136438571Y-32595714D01*
X136581428Y-32595714D01*
X136676666Y-32643333D01*
X136724285Y-32690952D01*
X136771904Y-32786190D01*
X136771904Y-33071904D01*
X136724285Y-33167142D01*
X136676666Y-33214761D01*
X136581428Y-33262380D01*
X136438571Y-33262380D01*
X137200476Y-32595714D02*
X137200476Y-33262380D01*
X137200476Y-32690952D02*
X137248095Y-32643333D01*
X137343333Y-32595714D01*
X137486190Y-32595714D01*
X137581428Y-32643333D01*
X137629047Y-32738571D01*
X137629047Y-33262380D01*
X138105238Y-32595714D02*
X138105238Y-33262380D01*
X138105238Y-32690952D02*
X138152857Y-32643333D01*
X138248095Y-32595714D01*
X138390952Y-32595714D01*
X138486190Y-32643333D01*
X138533809Y-32738571D01*
X138533809Y-33262380D01*
X138771904Y-33357619D02*
X139533809Y-33357619D01*
X139962380Y-32262380D02*
X140057619Y-32262380D01*
X140152857Y-32310000D01*
X140200476Y-32357619D01*
X140248095Y-32452857D01*
X140295714Y-32643333D01*
X140295714Y-32881428D01*
X140248095Y-33071904D01*
X140200476Y-33167142D01*
X140152857Y-33214761D01*
X140057619Y-33262380D01*
X139962380Y-33262380D01*
X139867142Y-33214761D01*
X139819523Y-33167142D01*
X139771904Y-33071904D01*
X139724285Y-32881428D01*
X139724285Y-32643333D01*
X139771904Y-32452857D01*
X139819523Y-32357619D01*
X139867142Y-32310000D01*
X139962380Y-32262380D01*
X140676666Y-32357619D02*
X140724285Y-32310000D01*
X140819523Y-32262380D01*
X141057619Y-32262380D01*
X141152857Y-32310000D01*
X141200476Y-32357619D01*
X141248095Y-32452857D01*
X141248095Y-32548095D01*
X141200476Y-32690952D01*
X140629047Y-33262380D01*
X141248095Y-33262380D01*
X141581428Y-33262380D02*
X142105238Y-32595714D01*
X141581428Y-32595714D02*
X142105238Y-33262380D01*
X142676666Y-32262380D02*
X142771904Y-32262380D01*
X142867142Y-32310000D01*
X142914761Y-32357619D01*
X142962380Y-32452857D01*
X143010000Y-32643333D01*
X143010000Y-32881428D01*
X142962380Y-33071904D01*
X142914761Y-33167142D01*
X142867142Y-33214761D01*
X142771904Y-33262380D01*
X142676666Y-33262380D01*
X142581428Y-33214761D01*
X142533809Y-33167142D01*
X142486190Y-33071904D01*
X142438571Y-32881428D01*
X142438571Y-32643333D01*
X142486190Y-32452857D01*
X142533809Y-32357619D01*
X142581428Y-32310000D01*
X142676666Y-32262380D01*
X143867142Y-32262380D02*
X143676666Y-32262380D01*
X143581428Y-32310000D01*
X143533809Y-32357619D01*
X143438571Y-32500476D01*
X143390952Y-32690952D01*
X143390952Y-33071904D01*
X143438571Y-33167142D01*
X143486190Y-33214761D01*
X143581428Y-33262380D01*
X143771904Y-33262380D01*
X143867142Y-33214761D01*
X143914761Y-33167142D01*
X143962380Y-33071904D01*
X143962380Y-32833809D01*
X143914761Y-32738571D01*
X143867142Y-32690952D01*
X143771904Y-32643333D01*
X143581428Y-32643333D01*
X143486190Y-32690952D01*
X143438571Y-32738571D01*
X143390952Y-32833809D01*
X144152857Y-33357619D02*
X144914761Y-33357619D01*
X145343333Y-32262380D02*
X145533809Y-32262380D01*
X145629047Y-32310000D01*
X145724285Y-32405238D01*
X145771904Y-32595714D01*
X145771904Y-32929047D01*
X145724285Y-33119523D01*
X145629047Y-33214761D01*
X145533809Y-33262380D01*
X145343333Y-33262380D01*
X145248095Y-33214761D01*
X145152857Y-33119523D01*
X145105238Y-32929047D01*
X145105238Y-32595714D01*
X145152857Y-32405238D01*
X145248095Y-32310000D01*
X145343333Y-32262380D01*
X146629047Y-33262380D02*
X146629047Y-32262380D01*
X146629047Y-33214761D02*
X146533809Y-33262380D01*
X146343333Y-33262380D01*
X146248095Y-33214761D01*
X146200476Y-33167142D01*
X146152857Y-33071904D01*
X146152857Y-32786190D01*
X146200476Y-32690952D01*
X146248095Y-32643333D01*
X146343333Y-32595714D01*
X146533809Y-32595714D01*
X146629047Y-32643333D01*
X147533809Y-33262380D02*
X147533809Y-32262380D01*
X147533809Y-33214761D02*
X147438571Y-33262380D01*
X147248095Y-33262380D01*
X147152857Y-33214761D01*
X147105238Y-33167142D01*
X147057619Y-33071904D01*
X147057619Y-32786190D01*
X147105238Y-32690952D01*
X147152857Y-32643333D01*
X147248095Y-32595714D01*
X147438571Y-32595714D01*
X147533809Y-32643333D01*
X147771904Y-33357619D02*
X148533809Y-33357619D01*
X148771904Y-32738571D02*
X149105238Y-32738571D01*
X149248095Y-33262380D02*
X148771904Y-33262380D01*
X148771904Y-32262380D01*
X149248095Y-32262380D01*
X149581428Y-32595714D02*
X149819523Y-33262380D01*
X150057619Y-32595714D01*
X150819523Y-33214761D02*
X150724285Y-33262380D01*
X150533809Y-33262380D01*
X150438571Y-33214761D01*
X150390952Y-33119523D01*
X150390952Y-32738571D01*
X150438571Y-32643333D01*
X150533809Y-32595714D01*
X150724285Y-32595714D01*
X150819523Y-32643333D01*
X150867142Y-32738571D01*
X150867142Y-32833809D01*
X150390952Y-32929047D01*
X151295714Y-32595714D02*
X151295714Y-33262380D01*
X151295714Y-32690952D02*
X151343333Y-32643333D01*
X151438571Y-32595714D01*
X151581428Y-32595714D01*
X151676666Y-32643333D01*
X151724285Y-32738571D01*
X151724285Y-33262380D01*
X142962380Y-30272857D02*
X143771904Y-30272857D01*
X143867142Y-30225238D01*
X143914761Y-30177619D01*
X143962380Y-30082380D01*
X143962380Y-29891904D01*
X143914761Y-29796666D01*
X143867142Y-29749047D01*
X143771904Y-29701428D01*
X142962380Y-29701428D01*
X143914761Y-29272857D02*
X143962380Y-29130000D01*
X143962380Y-28891904D01*
X143914761Y-28796666D01*
X143867142Y-28749047D01*
X143771904Y-28701428D01*
X143676666Y-28701428D01*
X143581428Y-28749047D01*
X143533809Y-28796666D01*
X143486190Y-28891904D01*
X143438571Y-29082380D01*
X143390952Y-29177619D01*
X143343333Y-29225238D01*
X143248095Y-29272857D01*
X143152857Y-29272857D01*
X143057619Y-29225238D01*
X143010000Y-29177619D01*
X142962380Y-29082380D01*
X142962380Y-28844285D01*
X143010000Y-28701428D01*
X143962380Y-27701428D02*
X143486190Y-28034761D01*
X143962380Y-28272857D02*
X142962380Y-28272857D01*
X142962380Y-27891904D01*
X143010000Y-27796666D01*
X143057619Y-27749047D01*
X143152857Y-27701428D01*
X143295714Y-27701428D01*
X143390952Y-27749047D01*
X143438571Y-27796666D01*
X143486190Y-27891904D01*
X143486190Y-28272857D01*
X143581428Y-27272857D02*
X143581428Y-26510952D01*
X143438571Y-26034761D02*
X143438571Y-25701428D01*
X143962380Y-25558571D02*
X143962380Y-26034761D01*
X142962380Y-26034761D01*
X142962380Y-25558571D01*
X143914761Y-25177619D02*
X143962380Y-25034761D01*
X143962380Y-24796666D01*
X143914761Y-24701428D01*
X143867142Y-24653809D01*
X143771904Y-24606190D01*
X143676666Y-24606190D01*
X143581428Y-24653809D01*
X143533809Y-24701428D01*
X143486190Y-24796666D01*
X143438571Y-24987142D01*
X143390952Y-25082380D01*
X143343333Y-25130000D01*
X143248095Y-25177619D01*
X143152857Y-25177619D01*
X143057619Y-25130000D01*
X143010000Y-25082380D01*
X142962380Y-24987142D01*
X142962380Y-24749047D01*
X143010000Y-24606190D01*
X143962380Y-23653809D02*
X143962380Y-24225238D01*
X143962380Y-23939523D02*
X142962380Y-23939523D01*
X143105238Y-24034761D01*
X143200476Y-24130000D01*
X143248095Y-24225238D01*
X144057619Y-23463333D02*
X144057619Y-22701428D01*
X142962380Y-22558571D02*
X143962380Y-22320476D01*
X143248095Y-22130000D01*
X143962380Y-21939523D01*
X142962380Y-21701428D01*
X142962380Y-20844285D02*
X142962380Y-21320476D01*
X143438571Y-21368095D01*
X143390952Y-21320476D01*
X143343333Y-21225238D01*
X143343333Y-20987142D01*
X143390952Y-20891904D01*
X143438571Y-20844285D01*
X143533809Y-20796666D01*
X143771904Y-20796666D01*
X143867142Y-20844285D01*
X143914761Y-20891904D01*
X143962380Y-20987142D01*
X143962380Y-21225238D01*
X143914761Y-21320476D01*
X143867142Y-21368095D01*
X142962380Y-19891904D02*
X142962380Y-20368095D01*
X143438571Y-20415714D01*
X143390952Y-20368095D01*
X143343333Y-20272857D01*
X143343333Y-20034761D01*
X143390952Y-19939523D01*
X143438571Y-19891904D01*
X143533809Y-19844285D01*
X143771904Y-19844285D01*
X143867142Y-19891904D01*
X143914761Y-19939523D01*
X143962380Y-20034761D01*
X143962380Y-20272857D01*
X143914761Y-20368095D01*
X143867142Y-20415714D01*
X142962380Y-19225238D02*
X142962380Y-19130000D01*
X143010000Y-19034761D01*
X143057619Y-18987142D01*
X143152857Y-18939523D01*
X143343333Y-18891904D01*
X143581428Y-18891904D01*
X143771904Y-18939523D01*
X143867142Y-18987142D01*
X143914761Y-19034761D01*
X143962380Y-19130000D01*
X143962380Y-19225238D01*
X143914761Y-19320476D01*
X143867142Y-19368095D01*
X143771904Y-19415714D01*
X143581428Y-19463333D01*
X143343333Y-19463333D01*
X143152857Y-19415714D01*
X143057619Y-19368095D01*
X143010000Y-19320476D01*
X142962380Y-19225238D01*
X142962380Y-18272857D02*
X142962380Y-18177619D01*
X143010000Y-18082380D01*
X143057619Y-18034761D01*
X143152857Y-17987142D01*
X143343333Y-17939523D01*
X143581428Y-17939523D01*
X143771904Y-17987142D01*
X143867142Y-18034761D01*
X143914761Y-18082380D01*
X143962380Y-18177619D01*
X143962380Y-18272857D01*
X143914761Y-18368095D01*
X143867142Y-18415714D01*
X143771904Y-18463333D01*
X143581428Y-18510952D01*
X143343333Y-18510952D01*
X143152857Y-18463333D01*
X143057619Y-18415714D01*
X143010000Y-18368095D01*
X142962380Y-18272857D01*
%TO.C,U2*%
X107132380Y-99988095D02*
X106132380Y-99988095D01*
X107132380Y-99416666D02*
X106560952Y-99845238D01*
X106132380Y-99416666D02*
X106703809Y-99988095D01*
X107037142Y-98416666D02*
X107084761Y-98464285D01*
X107132380Y-98607142D01*
X107132380Y-98702380D01*
X107084761Y-98845238D01*
X106989523Y-98940476D01*
X106894285Y-98988095D01*
X106703809Y-99035714D01*
X106560952Y-99035714D01*
X106370476Y-98988095D01*
X106275238Y-98940476D01*
X106180000Y-98845238D01*
X106132380Y-98702380D01*
X106132380Y-98607142D01*
X106180000Y-98464285D01*
X106227619Y-98416666D01*
X107084761Y-98035714D02*
X107132380Y-97892857D01*
X107132380Y-97654761D01*
X107084761Y-97559523D01*
X107037142Y-97511904D01*
X106941904Y-97464285D01*
X106846666Y-97464285D01*
X106751428Y-97511904D01*
X106703809Y-97559523D01*
X106656190Y-97654761D01*
X106608571Y-97845238D01*
X106560952Y-97940476D01*
X106513333Y-97988095D01*
X106418095Y-98035714D01*
X106322857Y-98035714D01*
X106227619Y-97988095D01*
X106180000Y-97940476D01*
X106132380Y-97845238D01*
X106132380Y-97607142D01*
X106180000Y-97464285D01*
X107037142Y-96464285D02*
X107084761Y-96511904D01*
X107132380Y-96654761D01*
X107132380Y-96750000D01*
X107084761Y-96892857D01*
X106989523Y-96988095D01*
X106894285Y-97035714D01*
X106703809Y-97083333D01*
X106560952Y-97083333D01*
X106370476Y-97035714D01*
X106275238Y-96988095D01*
X106180000Y-96892857D01*
X106132380Y-96750000D01*
X106132380Y-96654761D01*
X106180000Y-96511904D01*
X106227619Y-96464285D01*
X106132380Y-95845238D02*
X106132380Y-95750000D01*
X106180000Y-95654761D01*
X106227619Y-95607142D01*
X106322857Y-95559523D01*
X106513333Y-95511904D01*
X106751428Y-95511904D01*
X106941904Y-95559523D01*
X107037142Y-95607142D01*
X107084761Y-95654761D01*
X107132380Y-95750000D01*
X107132380Y-95845238D01*
X107084761Y-95940476D01*
X107037142Y-95988095D01*
X106941904Y-96035714D01*
X106751428Y-96083333D01*
X106513333Y-96083333D01*
X106322857Y-96035714D01*
X106227619Y-95988095D01*
X106180000Y-95940476D01*
X106132380Y-95845238D01*
X106227619Y-95130952D02*
X106180000Y-95083333D01*
X106132380Y-94988095D01*
X106132380Y-94750000D01*
X106180000Y-94654761D01*
X106227619Y-94607142D01*
X106322857Y-94559523D01*
X106418095Y-94559523D01*
X106560952Y-94607142D01*
X107132380Y-95178571D01*
X107132380Y-94559523D01*
X106751428Y-94130952D02*
X106751428Y-93369047D01*
X107132380Y-92369047D02*
X107132380Y-92940476D01*
X107132380Y-92654761D02*
X106132380Y-92654761D01*
X106275238Y-92750000D01*
X106370476Y-92845238D01*
X106418095Y-92940476D01*
X106132380Y-91750000D02*
X106132380Y-91654761D01*
X106180000Y-91559523D01*
X106227619Y-91511904D01*
X106322857Y-91464285D01*
X106513333Y-91416666D01*
X106751428Y-91416666D01*
X106941904Y-91464285D01*
X107037142Y-91511904D01*
X107084761Y-91559523D01*
X107132380Y-91654761D01*
X107132380Y-91750000D01*
X107084761Y-91845238D01*
X107037142Y-91892857D01*
X106941904Y-91940476D01*
X106751428Y-91988095D01*
X106513333Y-91988095D01*
X106322857Y-91940476D01*
X106227619Y-91892857D01*
X106180000Y-91845238D01*
X106132380Y-91750000D01*
X106132380Y-90511904D02*
X106132380Y-90988095D01*
X106608571Y-91035714D01*
X106560952Y-90988095D01*
X106513333Y-90892857D01*
X106513333Y-90654761D01*
X106560952Y-90559523D01*
X106608571Y-90511904D01*
X106703809Y-90464285D01*
X106941904Y-90464285D01*
X107037142Y-90511904D01*
X107084761Y-90559523D01*
X107132380Y-90654761D01*
X107132380Y-90892857D01*
X107084761Y-90988095D01*
X107037142Y-91035714D01*
X98512380Y-94741904D02*
X99321904Y-94741904D01*
X99417142Y-94694285D01*
X99464761Y-94646666D01*
X99512380Y-94551428D01*
X99512380Y-94360952D01*
X99464761Y-94265714D01*
X99417142Y-94218095D01*
X99321904Y-94170476D01*
X98512380Y-94170476D01*
X98607619Y-93741904D02*
X98560000Y-93694285D01*
X98512380Y-93599047D01*
X98512380Y-93360952D01*
X98560000Y-93265714D01*
X98607619Y-93218095D01*
X98702857Y-93170476D01*
X98798095Y-93170476D01*
X98940952Y-93218095D01*
X99512380Y-93789523D01*
X99512380Y-93170476D01*
%TO.C,REF\u002A\u002A*%
X167876666Y-15692380D02*
X167543333Y-15216190D01*
X167305238Y-15692380D02*
X167305238Y-14692380D01*
X167686190Y-14692380D01*
X167781428Y-14740000D01*
X167829047Y-14787619D01*
X167876666Y-14882857D01*
X167876666Y-15025714D01*
X167829047Y-15120952D01*
X167781428Y-15168571D01*
X167686190Y-15216190D01*
X167305238Y-15216190D01*
X168305238Y-15168571D02*
X168638571Y-15168571D01*
X168781428Y-15692380D02*
X168305238Y-15692380D01*
X168305238Y-14692380D01*
X168781428Y-14692380D01*
X169543333Y-15168571D02*
X169210000Y-15168571D01*
X169210000Y-15692380D02*
X169210000Y-14692380D01*
X169686190Y-14692380D01*
X170210000Y-14692380D02*
X170210000Y-14930476D01*
X169971904Y-14835238D02*
X170210000Y-14930476D01*
X170448095Y-14835238D01*
X170067142Y-15120952D02*
X170210000Y-14930476D01*
X170352857Y-15120952D01*
X170971904Y-14692380D02*
X170971904Y-14930476D01*
X170733809Y-14835238D02*
X170971904Y-14930476D01*
X171210000Y-14835238D01*
X170829047Y-15120952D02*
X170971904Y-14930476D01*
X171114761Y-15120952D01*
X167876666Y-104592380D02*
X167543333Y-104116190D01*
X167305238Y-104592380D02*
X167305238Y-103592380D01*
X167686190Y-103592380D01*
X167781428Y-103640000D01*
X167829047Y-103687619D01*
X167876666Y-103782857D01*
X167876666Y-103925714D01*
X167829047Y-104020952D01*
X167781428Y-104068571D01*
X167686190Y-104116190D01*
X167305238Y-104116190D01*
X168305238Y-104068571D02*
X168638571Y-104068571D01*
X168781428Y-104592380D02*
X168305238Y-104592380D01*
X168305238Y-103592380D01*
X168781428Y-103592380D01*
X169543333Y-104068571D02*
X169210000Y-104068571D01*
X169210000Y-104592380D02*
X169210000Y-103592380D01*
X169686190Y-103592380D01*
X170210000Y-103592380D02*
X170210000Y-103830476D01*
X169971904Y-103735238D02*
X170210000Y-103830476D01*
X170448095Y-103735238D01*
X170067142Y-104020952D02*
X170210000Y-103830476D01*
X170352857Y-104020952D01*
X170971904Y-103592380D02*
X170971904Y-103830476D01*
X170733809Y-103735238D02*
X170971904Y-103830476D01*
X171210000Y-103735238D01*
X170829047Y-104020952D02*
X170971904Y-103830476D01*
X171114761Y-104020952D01*
X82786666Y-104592380D02*
X82453333Y-104116190D01*
X82215238Y-104592380D02*
X82215238Y-103592380D01*
X82596190Y-103592380D01*
X82691428Y-103640000D01*
X82739047Y-103687619D01*
X82786666Y-103782857D01*
X82786666Y-103925714D01*
X82739047Y-104020952D01*
X82691428Y-104068571D01*
X82596190Y-104116190D01*
X82215238Y-104116190D01*
X83215238Y-104068571D02*
X83548571Y-104068571D01*
X83691428Y-104592380D02*
X83215238Y-104592380D01*
X83215238Y-103592380D01*
X83691428Y-103592380D01*
X84453333Y-104068571D02*
X84120000Y-104068571D01*
X84120000Y-104592380D02*
X84120000Y-103592380D01*
X84596190Y-103592380D01*
X85120000Y-103592380D02*
X85120000Y-103830476D01*
X84881904Y-103735238D02*
X85120000Y-103830476D01*
X85358095Y-103735238D01*
X84977142Y-104020952D02*
X85120000Y-103830476D01*
X85262857Y-104020952D01*
X85881904Y-103592380D02*
X85881904Y-103830476D01*
X85643809Y-103735238D02*
X85881904Y-103830476D01*
X86120000Y-103735238D01*
X85739047Y-104020952D02*
X85881904Y-103830476D01*
X86024761Y-104020952D01*
X82786666Y-15692380D02*
X82453333Y-15216190D01*
X82215238Y-15692380D02*
X82215238Y-14692380D01*
X82596190Y-14692380D01*
X82691428Y-14740000D01*
X82739047Y-14787619D01*
X82786666Y-14882857D01*
X82786666Y-15025714D01*
X82739047Y-15120952D01*
X82691428Y-15168571D01*
X82596190Y-15216190D01*
X82215238Y-15216190D01*
X83215238Y-15168571D02*
X83548571Y-15168571D01*
X83691428Y-15692380D02*
X83215238Y-15692380D01*
X83215238Y-14692380D01*
X83691428Y-14692380D01*
X84453333Y-15168571D02*
X84120000Y-15168571D01*
X84120000Y-15692380D02*
X84120000Y-14692380D01*
X84596190Y-14692380D01*
X85120000Y-14692380D02*
X85120000Y-14930476D01*
X84881904Y-14835238D02*
X85120000Y-14930476D01*
X85358095Y-14835238D01*
X84977142Y-15120952D02*
X85120000Y-14930476D01*
X85262857Y-15120952D01*
X85881904Y-14692380D02*
X85881904Y-14930476D01*
X85643809Y-14835238D02*
X85881904Y-14930476D01*
X86120000Y-14835238D01*
X85739047Y-15120952D02*
X85881904Y-14930476D01*
X86024761Y-15120952D01*
%TO.C,R11*%
X111832380Y-66317619D02*
X111832380Y-66889047D01*
X111832380Y-66603333D02*
X110832380Y-66603333D01*
X110975238Y-66698571D01*
X111070476Y-66793809D01*
X111118095Y-66889047D01*
X110832380Y-65698571D02*
X110832380Y-65603333D01*
X110880000Y-65508095D01*
X110927619Y-65460476D01*
X111022857Y-65412857D01*
X111213333Y-65365238D01*
X111451428Y-65365238D01*
X111641904Y-65412857D01*
X111737142Y-65460476D01*
X111784761Y-65508095D01*
X111832380Y-65603333D01*
X111832380Y-65698571D01*
X111784761Y-65793809D01*
X111737142Y-65841428D01*
X111641904Y-65889047D01*
X111451428Y-65936666D01*
X111213333Y-65936666D01*
X111022857Y-65889047D01*
X110927619Y-65841428D01*
X110880000Y-65793809D01*
X110832380Y-65698571D01*
X111832380Y-64174761D02*
X110832380Y-64174761D01*
X111451428Y-64079523D02*
X111832380Y-63793809D01*
X111165714Y-63793809D02*
X111546666Y-64174761D01*
X111832380Y-63412857D02*
X111832380Y-63174761D01*
X111641904Y-63174761D01*
X111594285Y-63270000D01*
X111499047Y-63365238D01*
X111356190Y-63412857D01*
X111118095Y-63412857D01*
X110975238Y-63365238D01*
X110880000Y-63270000D01*
X110832380Y-63127142D01*
X110832380Y-62936666D01*
X110880000Y-62793809D01*
X110975238Y-62698571D01*
X111118095Y-62650952D01*
X111356190Y-62650952D01*
X111499047Y-62698571D01*
X111594285Y-62793809D01*
X111641904Y-62889047D01*
X111832380Y-62889047D01*
X111832380Y-62650952D01*
D14*
X113256190Y-65091428D02*
X113018095Y-65258095D01*
X113256190Y-65377142D02*
X112756190Y-65377142D01*
X112756190Y-65186666D01*
X112780000Y-65139047D01*
X112803809Y-65115238D01*
X112851428Y-65091428D01*
X112922857Y-65091428D01*
X112970476Y-65115238D01*
X112994285Y-65139047D01*
X113018095Y-65186666D01*
X113018095Y-65377142D01*
X113256190Y-64615238D02*
X113256190Y-64900952D01*
X113256190Y-64758095D02*
X112756190Y-64758095D01*
X112827619Y-64805714D01*
X112875238Y-64853333D01*
X112899047Y-64900952D01*
X113256190Y-64139047D02*
X113256190Y-64424761D01*
X113256190Y-64281904D02*
X112756190Y-64281904D01*
X112827619Y-64329523D01*
X112875238Y-64377142D01*
X112899047Y-64424761D01*
%TO.C,R10*%
D13*
X94812380Y-66317619D02*
X94812380Y-66889047D01*
X94812380Y-66603333D02*
X93812380Y-66603333D01*
X93955238Y-66698571D01*
X94050476Y-66793809D01*
X94098095Y-66889047D01*
X93812380Y-65698571D02*
X93812380Y-65603333D01*
X93860000Y-65508095D01*
X93907619Y-65460476D01*
X94002857Y-65412857D01*
X94193333Y-65365238D01*
X94431428Y-65365238D01*
X94621904Y-65412857D01*
X94717142Y-65460476D01*
X94764761Y-65508095D01*
X94812380Y-65603333D01*
X94812380Y-65698571D01*
X94764761Y-65793809D01*
X94717142Y-65841428D01*
X94621904Y-65889047D01*
X94431428Y-65936666D01*
X94193333Y-65936666D01*
X94002857Y-65889047D01*
X93907619Y-65841428D01*
X93860000Y-65793809D01*
X93812380Y-65698571D01*
X94812380Y-64174761D02*
X93812380Y-64174761D01*
X94431428Y-64079523D02*
X94812380Y-63793809D01*
X94145714Y-63793809D02*
X94526666Y-64174761D01*
X94812380Y-63412857D02*
X94812380Y-63174761D01*
X94621904Y-63174761D01*
X94574285Y-63270000D01*
X94479047Y-63365238D01*
X94336190Y-63412857D01*
X94098095Y-63412857D01*
X93955238Y-63365238D01*
X93860000Y-63270000D01*
X93812380Y-63127142D01*
X93812380Y-62936666D01*
X93860000Y-62793809D01*
X93955238Y-62698571D01*
X94098095Y-62650952D01*
X94336190Y-62650952D01*
X94479047Y-62698571D01*
X94574285Y-62793809D01*
X94621904Y-62889047D01*
X94812380Y-62889047D01*
X94812380Y-62650952D01*
D14*
X92936190Y-65091428D02*
X92698095Y-65258095D01*
X92936190Y-65377142D02*
X92436190Y-65377142D01*
X92436190Y-65186666D01*
X92460000Y-65139047D01*
X92483809Y-65115238D01*
X92531428Y-65091428D01*
X92602857Y-65091428D01*
X92650476Y-65115238D01*
X92674285Y-65139047D01*
X92698095Y-65186666D01*
X92698095Y-65377142D01*
X92936190Y-64615238D02*
X92936190Y-64900952D01*
X92936190Y-64758095D02*
X92436190Y-64758095D01*
X92507619Y-64805714D01*
X92555238Y-64853333D01*
X92579047Y-64900952D01*
X92436190Y-64305714D02*
X92436190Y-64258095D01*
X92460000Y-64210476D01*
X92483809Y-64186666D01*
X92531428Y-64162857D01*
X92626666Y-64139047D01*
X92745714Y-64139047D01*
X92840952Y-64162857D01*
X92888571Y-64186666D01*
X92912380Y-64210476D01*
X92936190Y-64258095D01*
X92936190Y-64305714D01*
X92912380Y-64353333D01*
X92888571Y-64377142D01*
X92840952Y-64400952D01*
X92745714Y-64424761D01*
X92626666Y-64424761D01*
X92531428Y-64400952D01*
X92483809Y-64377142D01*
X92460000Y-64353333D01*
X92436190Y-64305714D01*
%TO.C,R9*%
D13*
X104972380Y-66317619D02*
X104972380Y-66889047D01*
X104972380Y-66603333D02*
X103972380Y-66603333D01*
X104115238Y-66698571D01*
X104210476Y-66793809D01*
X104258095Y-66889047D01*
X103972380Y-65698571D02*
X103972380Y-65603333D01*
X104020000Y-65508095D01*
X104067619Y-65460476D01*
X104162857Y-65412857D01*
X104353333Y-65365238D01*
X104591428Y-65365238D01*
X104781904Y-65412857D01*
X104877142Y-65460476D01*
X104924761Y-65508095D01*
X104972380Y-65603333D01*
X104972380Y-65698571D01*
X104924761Y-65793809D01*
X104877142Y-65841428D01*
X104781904Y-65889047D01*
X104591428Y-65936666D01*
X104353333Y-65936666D01*
X104162857Y-65889047D01*
X104067619Y-65841428D01*
X104020000Y-65793809D01*
X103972380Y-65698571D01*
X104972380Y-64174761D02*
X103972380Y-64174761D01*
X104591428Y-64079523D02*
X104972380Y-63793809D01*
X104305714Y-63793809D02*
X104686666Y-64174761D01*
X104972380Y-63412857D02*
X104972380Y-63174761D01*
X104781904Y-63174761D01*
X104734285Y-63270000D01*
X104639047Y-63365238D01*
X104496190Y-63412857D01*
X104258095Y-63412857D01*
X104115238Y-63365238D01*
X104020000Y-63270000D01*
X103972380Y-63127142D01*
X103972380Y-62936666D01*
X104020000Y-62793809D01*
X104115238Y-62698571D01*
X104258095Y-62650952D01*
X104496190Y-62650952D01*
X104639047Y-62698571D01*
X104734285Y-62793809D01*
X104781904Y-62889047D01*
X104972380Y-62889047D01*
X104972380Y-62650952D01*
D14*
X103096190Y-64853333D02*
X102858095Y-65020000D01*
X103096190Y-65139047D02*
X102596190Y-65139047D01*
X102596190Y-64948571D01*
X102620000Y-64900952D01*
X102643809Y-64877142D01*
X102691428Y-64853333D01*
X102762857Y-64853333D01*
X102810476Y-64877142D01*
X102834285Y-64900952D01*
X102858095Y-64948571D01*
X102858095Y-65139047D01*
X103096190Y-64615238D02*
X103096190Y-64520000D01*
X103072380Y-64472380D01*
X103048571Y-64448571D01*
X102977142Y-64400952D01*
X102881904Y-64377142D01*
X102691428Y-64377142D01*
X102643809Y-64400952D01*
X102620000Y-64424761D01*
X102596190Y-64472380D01*
X102596190Y-64567619D01*
X102620000Y-64615238D01*
X102643809Y-64639047D01*
X102691428Y-64662857D01*
X102810476Y-64662857D01*
X102858095Y-64639047D01*
X102881904Y-64615238D01*
X102905714Y-64567619D01*
X102905714Y-64472380D01*
X102881904Y-64424761D01*
X102858095Y-64400952D01*
X102810476Y-64377142D01*
%TO.C,R8*%
D13*
X110927619Y-94265476D02*
X110880000Y-94217857D01*
X110832380Y-94122619D01*
X110832380Y-93884523D01*
X110880000Y-93789285D01*
X110927619Y-93741666D01*
X111022857Y-93694047D01*
X111118095Y-93694047D01*
X111260952Y-93741666D01*
X111832380Y-94313095D01*
X111832380Y-93694047D01*
X110927619Y-93313095D02*
X110880000Y-93265476D01*
X110832380Y-93170238D01*
X110832380Y-92932142D01*
X110880000Y-92836904D01*
X110927619Y-92789285D01*
X111022857Y-92741666D01*
X111118095Y-92741666D01*
X111260952Y-92789285D01*
X111832380Y-93360714D01*
X111832380Y-92741666D01*
X110832380Y-92122619D02*
X110832380Y-92027380D01*
X110880000Y-91932142D01*
X110927619Y-91884523D01*
X111022857Y-91836904D01*
X111213333Y-91789285D01*
X111451428Y-91789285D01*
X111641904Y-91836904D01*
X111737142Y-91884523D01*
X111784761Y-91932142D01*
X111832380Y-92027380D01*
X111832380Y-92122619D01*
X111784761Y-92217857D01*
X111737142Y-92265476D01*
X111641904Y-92313095D01*
X111451428Y-92360714D01*
X111213333Y-92360714D01*
X111022857Y-92313095D01*
X110927619Y-92265476D01*
X110880000Y-92217857D01*
X110832380Y-92122619D01*
X111832380Y-90646428D02*
X111832380Y-90408333D01*
X111641904Y-90408333D01*
X111594285Y-90503571D01*
X111499047Y-90598809D01*
X111356190Y-90646428D01*
X111118095Y-90646428D01*
X110975238Y-90598809D01*
X110880000Y-90503571D01*
X110832380Y-90360714D01*
X110832380Y-90170238D01*
X110880000Y-90027380D01*
X110975238Y-89932142D01*
X111118095Y-89884523D01*
X111356190Y-89884523D01*
X111499047Y-89932142D01*
X111594285Y-90027380D01*
X111641904Y-90122619D01*
X111832380Y-90122619D01*
X111832380Y-89884523D01*
D14*
X113256190Y-92158333D02*
X113018095Y-92325000D01*
X113256190Y-92444047D02*
X112756190Y-92444047D01*
X112756190Y-92253571D01*
X112780000Y-92205952D01*
X112803809Y-92182142D01*
X112851428Y-92158333D01*
X112922857Y-92158333D01*
X112970476Y-92182142D01*
X112994285Y-92205952D01*
X113018095Y-92253571D01*
X113018095Y-92444047D01*
X112970476Y-91872619D02*
X112946666Y-91920238D01*
X112922857Y-91944047D01*
X112875238Y-91967857D01*
X112851428Y-91967857D01*
X112803809Y-91944047D01*
X112780000Y-91920238D01*
X112756190Y-91872619D01*
X112756190Y-91777380D01*
X112780000Y-91729761D01*
X112803809Y-91705952D01*
X112851428Y-91682142D01*
X112875238Y-91682142D01*
X112922857Y-91705952D01*
X112946666Y-91729761D01*
X112970476Y-91777380D01*
X112970476Y-91872619D01*
X112994285Y-91920238D01*
X113018095Y-91944047D01*
X113065714Y-91967857D01*
X113160952Y-91967857D01*
X113208571Y-91944047D01*
X113232380Y-91920238D01*
X113256190Y-91872619D01*
X113256190Y-91777380D01*
X113232380Y-91729761D01*
X113208571Y-91705952D01*
X113160952Y-91682142D01*
X113065714Y-91682142D01*
X113018095Y-91705952D01*
X112994285Y-91729761D01*
X112970476Y-91777380D01*
%TO.C,R7*%
D13*
X102797619Y-86367976D02*
X102750000Y-86320357D01*
X102702380Y-86225119D01*
X102702380Y-85987023D01*
X102750000Y-85891785D01*
X102797619Y-85844166D01*
X102892857Y-85796547D01*
X102988095Y-85796547D01*
X103130952Y-85844166D01*
X103702380Y-86415595D01*
X103702380Y-85796547D01*
X102797619Y-85415595D02*
X102750000Y-85367976D01*
X102702380Y-85272738D01*
X102702380Y-85034642D01*
X102750000Y-84939404D01*
X102797619Y-84891785D01*
X102892857Y-84844166D01*
X102988095Y-84844166D01*
X103130952Y-84891785D01*
X103702380Y-85463214D01*
X103702380Y-84844166D01*
X102702380Y-84225119D02*
X102702380Y-84129880D01*
X102750000Y-84034642D01*
X102797619Y-83987023D01*
X102892857Y-83939404D01*
X103083333Y-83891785D01*
X103321428Y-83891785D01*
X103511904Y-83939404D01*
X103607142Y-83987023D01*
X103654761Y-84034642D01*
X103702380Y-84129880D01*
X103702380Y-84225119D01*
X103654761Y-84320357D01*
X103607142Y-84367976D01*
X103511904Y-84415595D01*
X103321428Y-84463214D01*
X103083333Y-84463214D01*
X102892857Y-84415595D01*
X102797619Y-84367976D01*
X102750000Y-84320357D01*
X102702380Y-84225119D01*
X103702380Y-82748928D02*
X103702380Y-82510833D01*
X103511904Y-82510833D01*
X103464285Y-82606071D01*
X103369047Y-82701309D01*
X103226190Y-82748928D01*
X102988095Y-82748928D01*
X102845238Y-82701309D01*
X102750000Y-82606071D01*
X102702380Y-82463214D01*
X102702380Y-82272738D01*
X102750000Y-82129880D01*
X102845238Y-82034642D01*
X102988095Y-81987023D01*
X103226190Y-81987023D01*
X103369047Y-82034642D01*
X103464285Y-82129880D01*
X103511904Y-82225119D01*
X103702380Y-82225119D01*
X103702380Y-81987023D01*
D14*
X101826190Y-84260833D02*
X101588095Y-84427500D01*
X101826190Y-84546547D02*
X101326190Y-84546547D01*
X101326190Y-84356071D01*
X101350000Y-84308452D01*
X101373809Y-84284642D01*
X101421428Y-84260833D01*
X101492857Y-84260833D01*
X101540476Y-84284642D01*
X101564285Y-84308452D01*
X101588095Y-84356071D01*
X101588095Y-84546547D01*
X101326190Y-84094166D02*
X101326190Y-83760833D01*
X101826190Y-83975119D01*
%TO.C,R6*%
D13*
X105337619Y-86367976D02*
X105290000Y-86320357D01*
X105242380Y-86225119D01*
X105242380Y-85987023D01*
X105290000Y-85891785D01*
X105337619Y-85844166D01*
X105432857Y-85796547D01*
X105528095Y-85796547D01*
X105670952Y-85844166D01*
X106242380Y-86415595D01*
X106242380Y-85796547D01*
X105337619Y-85415595D02*
X105290000Y-85367976D01*
X105242380Y-85272738D01*
X105242380Y-85034642D01*
X105290000Y-84939404D01*
X105337619Y-84891785D01*
X105432857Y-84844166D01*
X105528095Y-84844166D01*
X105670952Y-84891785D01*
X106242380Y-85463214D01*
X106242380Y-84844166D01*
X105242380Y-84225119D02*
X105242380Y-84129880D01*
X105290000Y-84034642D01*
X105337619Y-83987023D01*
X105432857Y-83939404D01*
X105623333Y-83891785D01*
X105861428Y-83891785D01*
X106051904Y-83939404D01*
X106147142Y-83987023D01*
X106194761Y-84034642D01*
X106242380Y-84129880D01*
X106242380Y-84225119D01*
X106194761Y-84320357D01*
X106147142Y-84367976D01*
X106051904Y-84415595D01*
X105861428Y-84463214D01*
X105623333Y-84463214D01*
X105432857Y-84415595D01*
X105337619Y-84367976D01*
X105290000Y-84320357D01*
X105242380Y-84225119D01*
X106242380Y-82748928D02*
X106242380Y-82510833D01*
X106051904Y-82510833D01*
X106004285Y-82606071D01*
X105909047Y-82701309D01*
X105766190Y-82748928D01*
X105528095Y-82748928D01*
X105385238Y-82701309D01*
X105290000Y-82606071D01*
X105242380Y-82463214D01*
X105242380Y-82272738D01*
X105290000Y-82129880D01*
X105385238Y-82034642D01*
X105528095Y-81987023D01*
X105766190Y-81987023D01*
X105909047Y-82034642D01*
X106004285Y-82129880D01*
X106051904Y-82225119D01*
X106242380Y-82225119D01*
X106242380Y-81987023D01*
D14*
X104366190Y-84260833D02*
X104128095Y-84427500D01*
X104366190Y-84546547D02*
X103866190Y-84546547D01*
X103866190Y-84356071D01*
X103890000Y-84308452D01*
X103913809Y-84284642D01*
X103961428Y-84260833D01*
X104032857Y-84260833D01*
X104080476Y-84284642D01*
X104104285Y-84308452D01*
X104128095Y-84356071D01*
X104128095Y-84546547D01*
X103866190Y-83832261D02*
X103866190Y-83927500D01*
X103890000Y-83975119D01*
X103913809Y-83998928D01*
X103985238Y-84046547D01*
X104080476Y-84070357D01*
X104270952Y-84070357D01*
X104318571Y-84046547D01*
X104342380Y-84022738D01*
X104366190Y-83975119D01*
X104366190Y-83879880D01*
X104342380Y-83832261D01*
X104318571Y-83808452D01*
X104270952Y-83784642D01*
X104151904Y-83784642D01*
X104104285Y-83808452D01*
X104080476Y-83832261D01*
X104056666Y-83879880D01*
X104056666Y-83975119D01*
X104080476Y-84022738D01*
X104104285Y-84046547D01*
X104151904Y-84070357D01*
%TO.C,R5*%
D13*
X111052619Y-94265476D02*
X111005000Y-94217857D01*
X110957380Y-94122619D01*
X110957380Y-93884523D01*
X111005000Y-93789285D01*
X111052619Y-93741666D01*
X111147857Y-93694047D01*
X111243095Y-93694047D01*
X111385952Y-93741666D01*
X111957380Y-94313095D01*
X111957380Y-93694047D01*
X111052619Y-93313095D02*
X111005000Y-93265476D01*
X110957380Y-93170238D01*
X110957380Y-92932142D01*
X111005000Y-92836904D01*
X111052619Y-92789285D01*
X111147857Y-92741666D01*
X111243095Y-92741666D01*
X111385952Y-92789285D01*
X111957380Y-93360714D01*
X111957380Y-92741666D01*
X110957380Y-92122619D02*
X110957380Y-92027380D01*
X111005000Y-91932142D01*
X111052619Y-91884523D01*
X111147857Y-91836904D01*
X111338333Y-91789285D01*
X111576428Y-91789285D01*
X111766904Y-91836904D01*
X111862142Y-91884523D01*
X111909761Y-91932142D01*
X111957380Y-92027380D01*
X111957380Y-92122619D01*
X111909761Y-92217857D01*
X111862142Y-92265476D01*
X111766904Y-92313095D01*
X111576428Y-92360714D01*
X111338333Y-92360714D01*
X111147857Y-92313095D01*
X111052619Y-92265476D01*
X111005000Y-92217857D01*
X110957380Y-92122619D01*
X111957380Y-90646428D02*
X111957380Y-90408333D01*
X111766904Y-90408333D01*
X111719285Y-90503571D01*
X111624047Y-90598809D01*
X111481190Y-90646428D01*
X111243095Y-90646428D01*
X111100238Y-90598809D01*
X111005000Y-90503571D01*
X110957380Y-90360714D01*
X110957380Y-90170238D01*
X111005000Y-90027380D01*
X111100238Y-89932142D01*
X111243095Y-89884523D01*
X111481190Y-89884523D01*
X111624047Y-89932142D01*
X111719285Y-90027380D01*
X111766904Y-90122619D01*
X111957380Y-90122619D01*
X111957380Y-89884523D01*
D14*
X110081190Y-92158333D02*
X109843095Y-92325000D01*
X110081190Y-92444047D02*
X109581190Y-92444047D01*
X109581190Y-92253571D01*
X109605000Y-92205952D01*
X109628809Y-92182142D01*
X109676428Y-92158333D01*
X109747857Y-92158333D01*
X109795476Y-92182142D01*
X109819285Y-92205952D01*
X109843095Y-92253571D01*
X109843095Y-92444047D01*
X109581190Y-91705952D02*
X109581190Y-91944047D01*
X109819285Y-91967857D01*
X109795476Y-91944047D01*
X109771666Y-91896428D01*
X109771666Y-91777380D01*
X109795476Y-91729761D01*
X109819285Y-91705952D01*
X109866904Y-91682142D01*
X109985952Y-91682142D01*
X110033571Y-91705952D01*
X110057380Y-91729761D01*
X110081190Y-91777380D01*
X110081190Y-91896428D01*
X110057380Y-91944047D01*
X110033571Y-91967857D01*
%TO.C,R4*%
D13*
X86797619Y-90455476D02*
X86750000Y-90407857D01*
X86702380Y-90312619D01*
X86702380Y-90074523D01*
X86750000Y-89979285D01*
X86797619Y-89931666D01*
X86892857Y-89884047D01*
X86988095Y-89884047D01*
X87130952Y-89931666D01*
X87702380Y-90503095D01*
X87702380Y-89884047D01*
X86797619Y-89503095D02*
X86750000Y-89455476D01*
X86702380Y-89360238D01*
X86702380Y-89122142D01*
X86750000Y-89026904D01*
X86797619Y-88979285D01*
X86892857Y-88931666D01*
X86988095Y-88931666D01*
X87130952Y-88979285D01*
X87702380Y-89550714D01*
X87702380Y-88931666D01*
X86702380Y-88312619D02*
X86702380Y-88217380D01*
X86750000Y-88122142D01*
X86797619Y-88074523D01*
X86892857Y-88026904D01*
X87083333Y-87979285D01*
X87321428Y-87979285D01*
X87511904Y-88026904D01*
X87607142Y-88074523D01*
X87654761Y-88122142D01*
X87702380Y-88217380D01*
X87702380Y-88312619D01*
X87654761Y-88407857D01*
X87607142Y-88455476D01*
X87511904Y-88503095D01*
X87321428Y-88550714D01*
X87083333Y-88550714D01*
X86892857Y-88503095D01*
X86797619Y-88455476D01*
X86750000Y-88407857D01*
X86702380Y-88312619D01*
X87702380Y-86836428D02*
X87702380Y-86598333D01*
X87511904Y-86598333D01*
X87464285Y-86693571D01*
X87369047Y-86788809D01*
X87226190Y-86836428D01*
X86988095Y-86836428D01*
X86845238Y-86788809D01*
X86750000Y-86693571D01*
X86702380Y-86550714D01*
X86702380Y-86360238D01*
X86750000Y-86217380D01*
X86845238Y-86122142D01*
X86988095Y-86074523D01*
X87226190Y-86074523D01*
X87369047Y-86122142D01*
X87464285Y-86217380D01*
X87511904Y-86312619D01*
X87702380Y-86312619D01*
X87702380Y-86074523D01*
D14*
X89126190Y-88348333D02*
X88888095Y-88515000D01*
X89126190Y-88634047D02*
X88626190Y-88634047D01*
X88626190Y-88443571D01*
X88650000Y-88395952D01*
X88673809Y-88372142D01*
X88721428Y-88348333D01*
X88792857Y-88348333D01*
X88840476Y-88372142D01*
X88864285Y-88395952D01*
X88888095Y-88443571D01*
X88888095Y-88634047D01*
X88792857Y-87919761D02*
X89126190Y-87919761D01*
X88602380Y-88038809D02*
X88959523Y-88157857D01*
X88959523Y-87848333D01*
%TO.C,R3*%
D13*
X83622619Y-90455476D02*
X83575000Y-90407857D01*
X83527380Y-90312619D01*
X83527380Y-90074523D01*
X83575000Y-89979285D01*
X83622619Y-89931666D01*
X83717857Y-89884047D01*
X83813095Y-89884047D01*
X83955952Y-89931666D01*
X84527380Y-90503095D01*
X84527380Y-89884047D01*
X83622619Y-89503095D02*
X83575000Y-89455476D01*
X83527380Y-89360238D01*
X83527380Y-89122142D01*
X83575000Y-89026904D01*
X83622619Y-88979285D01*
X83717857Y-88931666D01*
X83813095Y-88931666D01*
X83955952Y-88979285D01*
X84527380Y-89550714D01*
X84527380Y-88931666D01*
X83527380Y-88312619D02*
X83527380Y-88217380D01*
X83575000Y-88122142D01*
X83622619Y-88074523D01*
X83717857Y-88026904D01*
X83908333Y-87979285D01*
X84146428Y-87979285D01*
X84336904Y-88026904D01*
X84432142Y-88074523D01*
X84479761Y-88122142D01*
X84527380Y-88217380D01*
X84527380Y-88312619D01*
X84479761Y-88407857D01*
X84432142Y-88455476D01*
X84336904Y-88503095D01*
X84146428Y-88550714D01*
X83908333Y-88550714D01*
X83717857Y-88503095D01*
X83622619Y-88455476D01*
X83575000Y-88407857D01*
X83527380Y-88312619D01*
X84527380Y-86836428D02*
X84527380Y-86598333D01*
X84336904Y-86598333D01*
X84289285Y-86693571D01*
X84194047Y-86788809D01*
X84051190Y-86836428D01*
X83813095Y-86836428D01*
X83670238Y-86788809D01*
X83575000Y-86693571D01*
X83527380Y-86550714D01*
X83527380Y-86360238D01*
X83575000Y-86217380D01*
X83670238Y-86122142D01*
X83813095Y-86074523D01*
X84051190Y-86074523D01*
X84194047Y-86122142D01*
X84289285Y-86217380D01*
X84336904Y-86312619D01*
X84527380Y-86312619D01*
X84527380Y-86074523D01*
D14*
X85951190Y-88348333D02*
X85713095Y-88515000D01*
X85951190Y-88634047D02*
X85451190Y-88634047D01*
X85451190Y-88443571D01*
X85475000Y-88395952D01*
X85498809Y-88372142D01*
X85546428Y-88348333D01*
X85617857Y-88348333D01*
X85665476Y-88372142D01*
X85689285Y-88395952D01*
X85713095Y-88443571D01*
X85713095Y-88634047D01*
X85451190Y-88181666D02*
X85451190Y-87872142D01*
X85641666Y-88038809D01*
X85641666Y-87967380D01*
X85665476Y-87919761D01*
X85689285Y-87895952D01*
X85736904Y-87872142D01*
X85855952Y-87872142D01*
X85903571Y-87895952D01*
X85927380Y-87919761D01*
X85951190Y-87967380D01*
X85951190Y-88110238D01*
X85927380Y-88157857D01*
X85903571Y-88181666D01*
%TO.C,R2*%
D13*
X95177619Y-86367976D02*
X95130000Y-86320357D01*
X95082380Y-86225119D01*
X95082380Y-85987023D01*
X95130000Y-85891785D01*
X95177619Y-85844166D01*
X95272857Y-85796547D01*
X95368095Y-85796547D01*
X95510952Y-85844166D01*
X96082380Y-86415595D01*
X96082380Y-85796547D01*
X95177619Y-85415595D02*
X95130000Y-85367976D01*
X95082380Y-85272738D01*
X95082380Y-85034642D01*
X95130000Y-84939404D01*
X95177619Y-84891785D01*
X95272857Y-84844166D01*
X95368095Y-84844166D01*
X95510952Y-84891785D01*
X96082380Y-85463214D01*
X96082380Y-84844166D01*
X95082380Y-84225119D02*
X95082380Y-84129880D01*
X95130000Y-84034642D01*
X95177619Y-83987023D01*
X95272857Y-83939404D01*
X95463333Y-83891785D01*
X95701428Y-83891785D01*
X95891904Y-83939404D01*
X95987142Y-83987023D01*
X96034761Y-84034642D01*
X96082380Y-84129880D01*
X96082380Y-84225119D01*
X96034761Y-84320357D01*
X95987142Y-84367976D01*
X95891904Y-84415595D01*
X95701428Y-84463214D01*
X95463333Y-84463214D01*
X95272857Y-84415595D01*
X95177619Y-84367976D01*
X95130000Y-84320357D01*
X95082380Y-84225119D01*
X96082380Y-82748928D02*
X96082380Y-82510833D01*
X95891904Y-82510833D01*
X95844285Y-82606071D01*
X95749047Y-82701309D01*
X95606190Y-82748928D01*
X95368095Y-82748928D01*
X95225238Y-82701309D01*
X95130000Y-82606071D01*
X95082380Y-82463214D01*
X95082380Y-82272738D01*
X95130000Y-82129880D01*
X95225238Y-82034642D01*
X95368095Y-81987023D01*
X95606190Y-81987023D01*
X95749047Y-82034642D01*
X95844285Y-82129880D01*
X95891904Y-82225119D01*
X96082380Y-82225119D01*
X96082380Y-81987023D01*
D14*
X94206190Y-84260833D02*
X93968095Y-84427500D01*
X94206190Y-84546547D02*
X93706190Y-84546547D01*
X93706190Y-84356071D01*
X93730000Y-84308452D01*
X93753809Y-84284642D01*
X93801428Y-84260833D01*
X93872857Y-84260833D01*
X93920476Y-84284642D01*
X93944285Y-84308452D01*
X93968095Y-84356071D01*
X93968095Y-84546547D01*
X93753809Y-84070357D02*
X93730000Y-84046547D01*
X93706190Y-83998928D01*
X93706190Y-83879880D01*
X93730000Y-83832261D01*
X93753809Y-83808452D01*
X93801428Y-83784642D01*
X93849047Y-83784642D01*
X93920476Y-83808452D01*
X94206190Y-84094166D01*
X94206190Y-83784642D01*
%TO.C,R1*%
D13*
X94417619Y-86367976D02*
X94370000Y-86320357D01*
X94322380Y-86225119D01*
X94322380Y-85987023D01*
X94370000Y-85891785D01*
X94417619Y-85844166D01*
X94512857Y-85796547D01*
X94608095Y-85796547D01*
X94750952Y-85844166D01*
X95322380Y-86415595D01*
X95322380Y-85796547D01*
X94417619Y-85415595D02*
X94370000Y-85367976D01*
X94322380Y-85272738D01*
X94322380Y-85034642D01*
X94370000Y-84939404D01*
X94417619Y-84891785D01*
X94512857Y-84844166D01*
X94608095Y-84844166D01*
X94750952Y-84891785D01*
X95322380Y-85463214D01*
X95322380Y-84844166D01*
X94322380Y-84225119D02*
X94322380Y-84129880D01*
X94370000Y-84034642D01*
X94417619Y-83987023D01*
X94512857Y-83939404D01*
X94703333Y-83891785D01*
X94941428Y-83891785D01*
X95131904Y-83939404D01*
X95227142Y-83987023D01*
X95274761Y-84034642D01*
X95322380Y-84129880D01*
X95322380Y-84225119D01*
X95274761Y-84320357D01*
X95227142Y-84367976D01*
X95131904Y-84415595D01*
X94941428Y-84463214D01*
X94703333Y-84463214D01*
X94512857Y-84415595D01*
X94417619Y-84367976D01*
X94370000Y-84320357D01*
X94322380Y-84225119D01*
X95322380Y-82748928D02*
X95322380Y-82510833D01*
X95131904Y-82510833D01*
X95084285Y-82606071D01*
X94989047Y-82701309D01*
X94846190Y-82748928D01*
X94608095Y-82748928D01*
X94465238Y-82701309D01*
X94370000Y-82606071D01*
X94322380Y-82463214D01*
X94322380Y-82272738D01*
X94370000Y-82129880D01*
X94465238Y-82034642D01*
X94608095Y-81987023D01*
X94846190Y-81987023D01*
X94989047Y-82034642D01*
X95084285Y-82129880D01*
X95131904Y-82225119D01*
X95322380Y-82225119D01*
X95322380Y-81987023D01*
D14*
X96746190Y-84260833D02*
X96508095Y-84427500D01*
X96746190Y-84546547D02*
X96246190Y-84546547D01*
X96246190Y-84356071D01*
X96270000Y-84308452D01*
X96293809Y-84284642D01*
X96341428Y-84260833D01*
X96412857Y-84260833D01*
X96460476Y-84284642D01*
X96484285Y-84308452D01*
X96508095Y-84356071D01*
X96508095Y-84546547D01*
X96746190Y-83784642D02*
X96746190Y-84070357D01*
X96746190Y-83927500D02*
X96246190Y-83927500D01*
X96317619Y-83975119D01*
X96365238Y-84022738D01*
X96389047Y-84070357D01*
%TO.C,TP_Tacho_3*%
D13*
X109696666Y-82782380D02*
X110268095Y-82782380D01*
X109982380Y-83782380D02*
X109982380Y-82782380D01*
X110982380Y-83734761D02*
X110887142Y-83782380D01*
X110696666Y-83782380D01*
X110601428Y-83734761D01*
X110553809Y-83639523D01*
X110553809Y-83258571D01*
X110601428Y-83163333D01*
X110696666Y-83115714D01*
X110887142Y-83115714D01*
X110982380Y-83163333D01*
X111030000Y-83258571D01*
X111030000Y-83353809D01*
X110553809Y-83449047D01*
X111410952Y-83734761D02*
X111506190Y-83782380D01*
X111696666Y-83782380D01*
X111791904Y-83734761D01*
X111839523Y-83639523D01*
X111839523Y-83591904D01*
X111791904Y-83496666D01*
X111696666Y-83449047D01*
X111553809Y-83449047D01*
X111458571Y-83401428D01*
X111410952Y-83306190D01*
X111410952Y-83258571D01*
X111458571Y-83163333D01*
X111553809Y-83115714D01*
X111696666Y-83115714D01*
X111791904Y-83163333D01*
X112125238Y-83115714D02*
X112506190Y-83115714D01*
X112268095Y-82782380D02*
X112268095Y-83639523D01*
X112315714Y-83734761D01*
X112410952Y-83782380D01*
X112506190Y-83782380D01*
X112839523Y-83782380D02*
X112839523Y-82782380D01*
X113220476Y-82782380D01*
X113315714Y-82830000D01*
X113363333Y-82877619D01*
X113410952Y-82972857D01*
X113410952Y-83115714D01*
X113363333Y-83210952D01*
X113315714Y-83258571D01*
X113220476Y-83306190D01*
X112839523Y-83306190D01*
X113982380Y-83782380D02*
X113887142Y-83734761D01*
X113839523Y-83687142D01*
X113791904Y-83591904D01*
X113791904Y-83306190D01*
X113839523Y-83210952D01*
X113887142Y-83163333D01*
X113982380Y-83115714D01*
X114125238Y-83115714D01*
X114220476Y-83163333D01*
X114268095Y-83210952D01*
X114315714Y-83306190D01*
X114315714Y-83591904D01*
X114268095Y-83687142D01*
X114220476Y-83734761D01*
X114125238Y-83782380D01*
X113982380Y-83782380D01*
X114744285Y-83782380D02*
X114744285Y-83115714D01*
X114744285Y-82782380D02*
X114696666Y-82830000D01*
X114744285Y-82877619D01*
X114791904Y-82830000D01*
X114744285Y-82782380D01*
X114744285Y-82877619D01*
X115220476Y-83115714D02*
X115220476Y-83782380D01*
X115220476Y-83210952D02*
X115268095Y-83163333D01*
X115363333Y-83115714D01*
X115506190Y-83115714D01*
X115601428Y-83163333D01*
X115649047Y-83258571D01*
X115649047Y-83782380D01*
X115982380Y-83115714D02*
X116363333Y-83115714D01*
X116125238Y-82782380D02*
X116125238Y-83639523D01*
X116172857Y-83734761D01*
X116268095Y-83782380D01*
X116363333Y-83782380D01*
X108839523Y-78732380D02*
X109410952Y-78732380D01*
X109125238Y-79732380D02*
X109125238Y-78732380D01*
X109744285Y-79732380D02*
X109744285Y-78732380D01*
X110125238Y-78732380D01*
X110220476Y-78780000D01*
X110268095Y-78827619D01*
X110315714Y-78922857D01*
X110315714Y-79065714D01*
X110268095Y-79160952D01*
X110220476Y-79208571D01*
X110125238Y-79256190D01*
X109744285Y-79256190D01*
X110506190Y-79827619D02*
X111268095Y-79827619D01*
X111363333Y-78732380D02*
X111934761Y-78732380D01*
X111649047Y-79732380D02*
X111649047Y-78732380D01*
X112696666Y-79732380D02*
X112696666Y-79208571D01*
X112649047Y-79113333D01*
X112553809Y-79065714D01*
X112363333Y-79065714D01*
X112268095Y-79113333D01*
X112696666Y-79684761D02*
X112601428Y-79732380D01*
X112363333Y-79732380D01*
X112268095Y-79684761D01*
X112220476Y-79589523D01*
X112220476Y-79494285D01*
X112268095Y-79399047D01*
X112363333Y-79351428D01*
X112601428Y-79351428D01*
X112696666Y-79303809D01*
X113601428Y-79684761D02*
X113506190Y-79732380D01*
X113315714Y-79732380D01*
X113220476Y-79684761D01*
X113172857Y-79637142D01*
X113125238Y-79541904D01*
X113125238Y-79256190D01*
X113172857Y-79160952D01*
X113220476Y-79113333D01*
X113315714Y-79065714D01*
X113506190Y-79065714D01*
X113601428Y-79113333D01*
X114030000Y-79732380D02*
X114030000Y-78732380D01*
X114458571Y-79732380D02*
X114458571Y-79208571D01*
X114410952Y-79113333D01*
X114315714Y-79065714D01*
X114172857Y-79065714D01*
X114077619Y-79113333D01*
X114030000Y-79160952D01*
X115077619Y-79732380D02*
X114982380Y-79684761D01*
X114934761Y-79637142D01*
X114887142Y-79541904D01*
X114887142Y-79256190D01*
X114934761Y-79160952D01*
X114982380Y-79113333D01*
X115077619Y-79065714D01*
X115220476Y-79065714D01*
X115315714Y-79113333D01*
X115363333Y-79160952D01*
X115410952Y-79256190D01*
X115410952Y-79541904D01*
X115363333Y-79637142D01*
X115315714Y-79684761D01*
X115220476Y-79732380D01*
X115077619Y-79732380D01*
X115601428Y-79827619D02*
X116363333Y-79827619D01*
X116506190Y-78732380D02*
X117125238Y-78732380D01*
X116791904Y-79113333D01*
X116934761Y-79113333D01*
X117030000Y-79160952D01*
X117077619Y-79208571D01*
X117125238Y-79303809D01*
X117125238Y-79541904D01*
X117077619Y-79637142D01*
X117030000Y-79684761D01*
X116934761Y-79732380D01*
X116649047Y-79732380D01*
X116553809Y-79684761D01*
X116506190Y-79637142D01*
%TO.C,U1*%
X93654761Y-57062380D02*
X93178571Y-57062380D01*
X93178571Y-56062380D01*
X93892857Y-56062380D02*
X94559523Y-56062380D01*
X94130952Y-57062380D01*
X95083333Y-56490952D02*
X94988095Y-56443333D01*
X94940476Y-56395714D01*
X94892857Y-56300476D01*
X94892857Y-56252857D01*
X94940476Y-56157619D01*
X94988095Y-56110000D01*
X95083333Y-56062380D01*
X95273809Y-56062380D01*
X95369047Y-56110000D01*
X95416666Y-56157619D01*
X95464285Y-56252857D01*
X95464285Y-56300476D01*
X95416666Y-56395714D01*
X95369047Y-56443333D01*
X95273809Y-56490952D01*
X95083333Y-56490952D01*
X94988095Y-56538571D01*
X94940476Y-56586190D01*
X94892857Y-56681428D01*
X94892857Y-56871904D01*
X94940476Y-56967142D01*
X94988095Y-57014761D01*
X95083333Y-57062380D01*
X95273809Y-57062380D01*
X95369047Y-57014761D01*
X95416666Y-56967142D01*
X95464285Y-56871904D01*
X95464285Y-56681428D01*
X95416666Y-56586190D01*
X95369047Y-56538571D01*
X95273809Y-56490952D01*
X96083333Y-56062380D02*
X96178571Y-56062380D01*
X96273809Y-56110000D01*
X96321428Y-56157619D01*
X96369047Y-56252857D01*
X96416666Y-56443333D01*
X96416666Y-56681428D01*
X96369047Y-56871904D01*
X96321428Y-56967142D01*
X96273809Y-57014761D01*
X96178571Y-57062380D01*
X96083333Y-57062380D01*
X95988095Y-57014761D01*
X95940476Y-56967142D01*
X95892857Y-56871904D01*
X95845238Y-56681428D01*
X95845238Y-56443333D01*
X95892857Y-56252857D01*
X95940476Y-56157619D01*
X95988095Y-56110000D01*
X96083333Y-56062380D01*
X97273809Y-56062380D02*
X97083333Y-56062380D01*
X96988095Y-56110000D01*
X96940476Y-56157619D01*
X96845238Y-56300476D01*
X96797619Y-56490952D01*
X96797619Y-56871904D01*
X96845238Y-56967142D01*
X96892857Y-57014761D01*
X96988095Y-57062380D01*
X97178571Y-57062380D01*
X97273809Y-57014761D01*
X97321428Y-56967142D01*
X97369047Y-56871904D01*
X97369047Y-56633809D01*
X97321428Y-56538571D01*
X97273809Y-56490952D01*
X97178571Y-56443333D01*
X96988095Y-56443333D01*
X96892857Y-56490952D01*
X96845238Y-56538571D01*
X96797619Y-56633809D01*
X94488095Y-33482380D02*
X94488095Y-34291904D01*
X94535714Y-34387142D01*
X94583333Y-34434761D01*
X94678571Y-34482380D01*
X94869047Y-34482380D01*
X94964285Y-34434761D01*
X95011904Y-34387142D01*
X95059523Y-34291904D01*
X95059523Y-33482380D01*
X96059523Y-34482380D02*
X95488095Y-34482380D01*
X95773809Y-34482380D02*
X95773809Y-33482380D01*
X95678571Y-33625238D01*
X95583333Y-33720476D01*
X95488095Y-33768095D01*
%TO.C,Q3*%
X155734285Y-39092380D02*
X155734285Y-38092380D01*
X156781904Y-39092380D02*
X156448571Y-38616190D01*
X156210476Y-39092380D02*
X156210476Y-38092380D01*
X156591428Y-38092380D01*
X156686666Y-38140000D01*
X156734285Y-38187619D01*
X156781904Y-38282857D01*
X156781904Y-38425714D01*
X156734285Y-38520952D01*
X156686666Y-38568571D01*
X156591428Y-38616190D01*
X156210476Y-38616190D01*
X157686666Y-39092380D02*
X157210476Y-39092380D01*
X157210476Y-38092380D01*
X158496190Y-38092380D02*
X158020000Y-38092380D01*
X157972380Y-38568571D01*
X158020000Y-38520952D01*
X158115238Y-38473333D01*
X158353333Y-38473333D01*
X158448571Y-38520952D01*
X158496190Y-38568571D01*
X158543809Y-38663809D01*
X158543809Y-38901904D01*
X158496190Y-38997142D01*
X158448571Y-39044761D01*
X158353333Y-39092380D01*
X158115238Y-39092380D01*
X158020000Y-39044761D01*
X157972380Y-38997142D01*
X158924761Y-38187619D02*
X158972380Y-38140000D01*
X159067619Y-38092380D01*
X159305714Y-38092380D01*
X159400952Y-38140000D01*
X159448571Y-38187619D01*
X159496190Y-38282857D01*
X159496190Y-38378095D01*
X159448571Y-38520952D01*
X158877142Y-39092380D01*
X159496190Y-39092380D01*
X160115238Y-38092380D02*
X160210476Y-38092380D01*
X160305714Y-38140000D01*
X160353333Y-38187619D01*
X160400952Y-38282857D01*
X160448571Y-38473333D01*
X160448571Y-38711428D01*
X160400952Y-38901904D01*
X160353333Y-38997142D01*
X160305714Y-39044761D01*
X160210476Y-39092380D01*
X160115238Y-39092380D01*
X160020000Y-39044761D01*
X159972380Y-38997142D01*
X159924761Y-38901904D01*
X159877142Y-38711428D01*
X159877142Y-38473333D01*
X159924761Y-38282857D01*
X159972380Y-38187619D01*
X160020000Y-38140000D01*
X160115238Y-38092380D01*
X160877142Y-39092380D02*
X160877142Y-38092380D01*
X161448571Y-39092380D01*
X161448571Y-38092380D01*
X161924761Y-39092380D02*
X161924761Y-38092380D01*
X162305714Y-38092380D01*
X162400952Y-38140000D01*
X162448571Y-38187619D01*
X162496190Y-38282857D01*
X162496190Y-38425714D01*
X162448571Y-38520952D01*
X162400952Y-38568571D01*
X162305714Y-38616190D01*
X161924761Y-38616190D01*
X163258095Y-38568571D02*
X163400952Y-38616190D01*
X163448571Y-38663809D01*
X163496190Y-38759047D01*
X163496190Y-38901904D01*
X163448571Y-38997142D01*
X163400952Y-39044761D01*
X163305714Y-39092380D01*
X162924761Y-39092380D01*
X162924761Y-38092380D01*
X163258095Y-38092380D01*
X163353333Y-38140000D01*
X163400952Y-38187619D01*
X163448571Y-38282857D01*
X163448571Y-38378095D01*
X163400952Y-38473333D01*
X163353333Y-38520952D01*
X163258095Y-38568571D01*
X162924761Y-38568571D01*
X164258095Y-38568571D02*
X163924761Y-38568571D01*
X163924761Y-39092380D02*
X163924761Y-38092380D01*
X164400952Y-38092380D01*
X159924761Y-61767619D02*
X159829523Y-61720000D01*
X159734285Y-61624761D01*
X159591428Y-61481904D01*
X159496190Y-61434285D01*
X159400952Y-61434285D01*
X159448571Y-61672380D02*
X159353333Y-61624761D01*
X159258095Y-61529523D01*
X159210476Y-61339047D01*
X159210476Y-61005714D01*
X159258095Y-60815238D01*
X159353333Y-60720000D01*
X159448571Y-60672380D01*
X159639047Y-60672380D01*
X159734285Y-60720000D01*
X159829523Y-60815238D01*
X159877142Y-61005714D01*
X159877142Y-61339047D01*
X159829523Y-61529523D01*
X159734285Y-61624761D01*
X159639047Y-61672380D01*
X159448571Y-61672380D01*
X160210476Y-60672380D02*
X160829523Y-60672380D01*
X160496190Y-61053333D01*
X160639047Y-61053333D01*
X160734285Y-61100952D01*
X160781904Y-61148571D01*
X160829523Y-61243809D01*
X160829523Y-61481904D01*
X160781904Y-61577142D01*
X160734285Y-61624761D01*
X160639047Y-61672380D01*
X160353333Y-61672380D01*
X160258095Y-61624761D01*
X160210476Y-61577142D01*
%TO.C,Q2*%
X141764285Y-39092380D02*
X141764285Y-38092380D01*
X142811904Y-39092380D02*
X142478571Y-38616190D01*
X142240476Y-39092380D02*
X142240476Y-38092380D01*
X142621428Y-38092380D01*
X142716666Y-38140000D01*
X142764285Y-38187619D01*
X142811904Y-38282857D01*
X142811904Y-38425714D01*
X142764285Y-38520952D01*
X142716666Y-38568571D01*
X142621428Y-38616190D01*
X142240476Y-38616190D01*
X143716666Y-39092380D02*
X143240476Y-39092380D01*
X143240476Y-38092380D01*
X144526190Y-38092380D02*
X144050000Y-38092380D01*
X144002380Y-38568571D01*
X144050000Y-38520952D01*
X144145238Y-38473333D01*
X144383333Y-38473333D01*
X144478571Y-38520952D01*
X144526190Y-38568571D01*
X144573809Y-38663809D01*
X144573809Y-38901904D01*
X144526190Y-38997142D01*
X144478571Y-39044761D01*
X144383333Y-39092380D01*
X144145238Y-39092380D01*
X144050000Y-39044761D01*
X144002380Y-38997142D01*
X144954761Y-38187619D02*
X145002380Y-38140000D01*
X145097619Y-38092380D01*
X145335714Y-38092380D01*
X145430952Y-38140000D01*
X145478571Y-38187619D01*
X145526190Y-38282857D01*
X145526190Y-38378095D01*
X145478571Y-38520952D01*
X144907142Y-39092380D01*
X145526190Y-39092380D01*
X146145238Y-38092380D02*
X146240476Y-38092380D01*
X146335714Y-38140000D01*
X146383333Y-38187619D01*
X146430952Y-38282857D01*
X146478571Y-38473333D01*
X146478571Y-38711428D01*
X146430952Y-38901904D01*
X146383333Y-38997142D01*
X146335714Y-39044761D01*
X146240476Y-39092380D01*
X146145238Y-39092380D01*
X146050000Y-39044761D01*
X146002380Y-38997142D01*
X145954761Y-38901904D01*
X145907142Y-38711428D01*
X145907142Y-38473333D01*
X145954761Y-38282857D01*
X146002380Y-38187619D01*
X146050000Y-38140000D01*
X146145238Y-38092380D01*
X146907142Y-39092380D02*
X146907142Y-38092380D01*
X147478571Y-39092380D01*
X147478571Y-38092380D01*
X147954761Y-39092380D02*
X147954761Y-38092380D01*
X148335714Y-38092380D01*
X148430952Y-38140000D01*
X148478571Y-38187619D01*
X148526190Y-38282857D01*
X148526190Y-38425714D01*
X148478571Y-38520952D01*
X148430952Y-38568571D01*
X148335714Y-38616190D01*
X147954761Y-38616190D01*
X149288095Y-38568571D02*
X149430952Y-38616190D01*
X149478571Y-38663809D01*
X149526190Y-38759047D01*
X149526190Y-38901904D01*
X149478571Y-38997142D01*
X149430952Y-39044761D01*
X149335714Y-39092380D01*
X148954761Y-39092380D01*
X148954761Y-38092380D01*
X149288095Y-38092380D01*
X149383333Y-38140000D01*
X149430952Y-38187619D01*
X149478571Y-38282857D01*
X149478571Y-38378095D01*
X149430952Y-38473333D01*
X149383333Y-38520952D01*
X149288095Y-38568571D01*
X148954761Y-38568571D01*
X150288095Y-38568571D02*
X149954761Y-38568571D01*
X149954761Y-39092380D02*
X149954761Y-38092380D01*
X150430952Y-38092380D01*
X145954761Y-61767619D02*
X145859523Y-61720000D01*
X145764285Y-61624761D01*
X145621428Y-61481904D01*
X145526190Y-61434285D01*
X145430952Y-61434285D01*
X145478571Y-61672380D02*
X145383333Y-61624761D01*
X145288095Y-61529523D01*
X145240476Y-61339047D01*
X145240476Y-61005714D01*
X145288095Y-60815238D01*
X145383333Y-60720000D01*
X145478571Y-60672380D01*
X145669047Y-60672380D01*
X145764285Y-60720000D01*
X145859523Y-60815238D01*
X145907142Y-61005714D01*
X145907142Y-61339047D01*
X145859523Y-61529523D01*
X145764285Y-61624761D01*
X145669047Y-61672380D01*
X145478571Y-61672380D01*
X146288095Y-60767619D02*
X146335714Y-60720000D01*
X146430952Y-60672380D01*
X146669047Y-60672380D01*
X146764285Y-60720000D01*
X146811904Y-60767619D01*
X146859523Y-60862857D01*
X146859523Y-60958095D01*
X146811904Y-61100952D01*
X146240476Y-61672380D01*
X146859523Y-61672380D01*
%TO.C,Q1*%
X127794285Y-39092380D02*
X127794285Y-38092380D01*
X128841904Y-39092380D02*
X128508571Y-38616190D01*
X128270476Y-39092380D02*
X128270476Y-38092380D01*
X128651428Y-38092380D01*
X128746666Y-38140000D01*
X128794285Y-38187619D01*
X128841904Y-38282857D01*
X128841904Y-38425714D01*
X128794285Y-38520952D01*
X128746666Y-38568571D01*
X128651428Y-38616190D01*
X128270476Y-38616190D01*
X129746666Y-39092380D02*
X129270476Y-39092380D01*
X129270476Y-38092380D01*
X130556190Y-38092380D02*
X130080000Y-38092380D01*
X130032380Y-38568571D01*
X130080000Y-38520952D01*
X130175238Y-38473333D01*
X130413333Y-38473333D01*
X130508571Y-38520952D01*
X130556190Y-38568571D01*
X130603809Y-38663809D01*
X130603809Y-38901904D01*
X130556190Y-38997142D01*
X130508571Y-39044761D01*
X130413333Y-39092380D01*
X130175238Y-39092380D01*
X130080000Y-39044761D01*
X130032380Y-38997142D01*
X130984761Y-38187619D02*
X131032380Y-38140000D01*
X131127619Y-38092380D01*
X131365714Y-38092380D01*
X131460952Y-38140000D01*
X131508571Y-38187619D01*
X131556190Y-38282857D01*
X131556190Y-38378095D01*
X131508571Y-38520952D01*
X130937142Y-39092380D01*
X131556190Y-39092380D01*
X132175238Y-38092380D02*
X132270476Y-38092380D01*
X132365714Y-38140000D01*
X132413333Y-38187619D01*
X132460952Y-38282857D01*
X132508571Y-38473333D01*
X132508571Y-38711428D01*
X132460952Y-38901904D01*
X132413333Y-38997142D01*
X132365714Y-39044761D01*
X132270476Y-39092380D01*
X132175238Y-39092380D01*
X132080000Y-39044761D01*
X132032380Y-38997142D01*
X131984761Y-38901904D01*
X131937142Y-38711428D01*
X131937142Y-38473333D01*
X131984761Y-38282857D01*
X132032380Y-38187619D01*
X132080000Y-38140000D01*
X132175238Y-38092380D01*
X132937142Y-39092380D02*
X132937142Y-38092380D01*
X133508571Y-39092380D01*
X133508571Y-38092380D01*
X133984761Y-39092380D02*
X133984761Y-38092380D01*
X134365714Y-38092380D01*
X134460952Y-38140000D01*
X134508571Y-38187619D01*
X134556190Y-38282857D01*
X134556190Y-38425714D01*
X134508571Y-38520952D01*
X134460952Y-38568571D01*
X134365714Y-38616190D01*
X133984761Y-38616190D01*
X135318095Y-38568571D02*
X135460952Y-38616190D01*
X135508571Y-38663809D01*
X135556190Y-38759047D01*
X135556190Y-38901904D01*
X135508571Y-38997142D01*
X135460952Y-39044761D01*
X135365714Y-39092380D01*
X134984761Y-39092380D01*
X134984761Y-38092380D01*
X135318095Y-38092380D01*
X135413333Y-38140000D01*
X135460952Y-38187619D01*
X135508571Y-38282857D01*
X135508571Y-38378095D01*
X135460952Y-38473333D01*
X135413333Y-38520952D01*
X135318095Y-38568571D01*
X134984761Y-38568571D01*
X136318095Y-38568571D02*
X135984761Y-38568571D01*
X135984761Y-39092380D02*
X135984761Y-38092380D01*
X136460952Y-38092380D01*
X131984761Y-61767619D02*
X131889523Y-61720000D01*
X131794285Y-61624761D01*
X131651428Y-61481904D01*
X131556190Y-61434285D01*
X131460952Y-61434285D01*
X131508571Y-61672380D02*
X131413333Y-61624761D01*
X131318095Y-61529523D01*
X131270476Y-61339047D01*
X131270476Y-61005714D01*
X131318095Y-60815238D01*
X131413333Y-60720000D01*
X131508571Y-60672380D01*
X131699047Y-60672380D01*
X131794285Y-60720000D01*
X131889523Y-60815238D01*
X131937142Y-61005714D01*
X131937142Y-61339047D01*
X131889523Y-61529523D01*
X131794285Y-61624761D01*
X131699047Y-61672380D01*
X131508571Y-61672380D01*
X132889523Y-61672380D02*
X132318095Y-61672380D01*
X132603809Y-61672380D02*
X132603809Y-60672380D01*
X132508571Y-60815238D01*
X132413333Y-60910476D01*
X132318095Y-60958095D01*
%TO.C,M3*%
X112770476Y-78088571D02*
X112437142Y-78088571D01*
X112437142Y-78612380D02*
X112437142Y-77612380D01*
X112913333Y-77612380D01*
X113722857Y-78612380D02*
X113722857Y-78088571D01*
X113675238Y-77993333D01*
X113580000Y-77945714D01*
X113389523Y-77945714D01*
X113294285Y-77993333D01*
X113722857Y-78564761D02*
X113627619Y-78612380D01*
X113389523Y-78612380D01*
X113294285Y-78564761D01*
X113246666Y-78469523D01*
X113246666Y-78374285D01*
X113294285Y-78279047D01*
X113389523Y-78231428D01*
X113627619Y-78231428D01*
X113722857Y-78183809D01*
X114199047Y-77945714D02*
X114199047Y-78612380D01*
X114199047Y-78040952D02*
X114246666Y-77993333D01*
X114341904Y-77945714D01*
X114484761Y-77945714D01*
X114580000Y-77993333D01*
X114627619Y-78088571D01*
X114627619Y-78612380D01*
X114865714Y-78707619D02*
X115627619Y-78707619D01*
X115722857Y-77612380D02*
X116294285Y-77612380D01*
X116008571Y-78612380D02*
X116008571Y-77612380D01*
X117056190Y-78612380D02*
X117056190Y-78088571D01*
X117008571Y-77993333D01*
X116913333Y-77945714D01*
X116722857Y-77945714D01*
X116627619Y-77993333D01*
X117056190Y-78564761D02*
X116960952Y-78612380D01*
X116722857Y-78612380D01*
X116627619Y-78564761D01*
X116580000Y-78469523D01*
X116580000Y-78374285D01*
X116627619Y-78279047D01*
X116722857Y-78231428D01*
X116960952Y-78231428D01*
X117056190Y-78183809D01*
X117960952Y-78564761D02*
X117865714Y-78612380D01*
X117675238Y-78612380D01*
X117580000Y-78564761D01*
X117532380Y-78517142D01*
X117484761Y-78421904D01*
X117484761Y-78136190D01*
X117532380Y-78040952D01*
X117580000Y-77993333D01*
X117675238Y-77945714D01*
X117865714Y-77945714D01*
X117960952Y-77993333D01*
X118389523Y-78612380D02*
X118389523Y-77612380D01*
X118818095Y-78612380D02*
X118818095Y-78088571D01*
X118770476Y-77993333D01*
X118675238Y-77945714D01*
X118532380Y-77945714D01*
X118437142Y-77993333D01*
X118389523Y-78040952D01*
X119437142Y-78612380D02*
X119341904Y-78564761D01*
X119294285Y-78517142D01*
X119246666Y-78421904D01*
X119246666Y-78136190D01*
X119294285Y-78040952D01*
X119341904Y-77993333D01*
X119437142Y-77945714D01*
X119580000Y-77945714D01*
X119675238Y-77993333D01*
X119722857Y-78040952D01*
X119770476Y-78136190D01*
X119770476Y-78421904D01*
X119722857Y-78517142D01*
X119675238Y-78564761D01*
X119580000Y-78612380D01*
X119437142Y-78612380D01*
X115170476Y-75912380D02*
X115170476Y-74912380D01*
X115503809Y-75626666D01*
X115837142Y-74912380D01*
X115837142Y-75912380D01*
X116218095Y-74912380D02*
X116837142Y-74912380D01*
X116503809Y-75293333D01*
X116646666Y-75293333D01*
X116741904Y-75340952D01*
X116789523Y-75388571D01*
X116837142Y-75483809D01*
X116837142Y-75721904D01*
X116789523Y-75817142D01*
X116741904Y-75864761D01*
X116646666Y-75912380D01*
X116360952Y-75912380D01*
X116265714Y-75864761D01*
X116218095Y-75817142D01*
%TO.C,U3*%
X127222380Y-28838095D02*
X127222380Y-29314285D01*
X126222380Y-29314285D01*
X127222380Y-28504761D02*
X126222380Y-28504761D01*
X126936666Y-28171428D01*
X126222380Y-27838095D01*
X127222380Y-27838095D01*
X126222380Y-27457142D02*
X126222380Y-26838095D01*
X126603333Y-27171428D01*
X126603333Y-27028571D01*
X126650952Y-26933333D01*
X126698571Y-26885714D01*
X126793809Y-26838095D01*
X127031904Y-26838095D01*
X127127142Y-26885714D01*
X127174761Y-26933333D01*
X127222380Y-27028571D01*
X127222380Y-27314285D01*
X127174761Y-27409523D01*
X127127142Y-27457142D01*
X126222380Y-25933333D02*
X126222380Y-26409523D01*
X126698571Y-26457142D01*
X126650952Y-26409523D01*
X126603333Y-26314285D01*
X126603333Y-26076190D01*
X126650952Y-25980952D01*
X126698571Y-25933333D01*
X126793809Y-25885714D01*
X127031904Y-25885714D01*
X127127142Y-25933333D01*
X127174761Y-25980952D01*
X127222380Y-26076190D01*
X127222380Y-26314285D01*
X127174761Y-26409523D01*
X127127142Y-26457142D01*
X126841428Y-25457142D02*
X126841428Y-24695238D01*
X127222380Y-23742857D02*
X127222380Y-24219047D01*
X126222380Y-24219047D01*
X127222380Y-23409523D02*
X126222380Y-23409523D01*
X126222380Y-23028571D01*
X126270000Y-22933333D01*
X126317619Y-22885714D01*
X126412857Y-22838095D01*
X126555714Y-22838095D01*
X126650952Y-22885714D01*
X126698571Y-22933333D01*
X126746190Y-23028571D01*
X126746190Y-23409523D01*
X131532380Y-25466904D02*
X132341904Y-25466904D01*
X132437142Y-25419285D01*
X132484761Y-25371666D01*
X132532380Y-25276428D01*
X132532380Y-25085952D01*
X132484761Y-24990714D01*
X132437142Y-24943095D01*
X132341904Y-24895476D01*
X131532380Y-24895476D01*
X131532380Y-24514523D02*
X131532380Y-23895476D01*
X131913333Y-24228809D01*
X131913333Y-24085952D01*
X131960952Y-23990714D01*
X132008571Y-23943095D01*
X132103809Y-23895476D01*
X132341904Y-23895476D01*
X132437142Y-23943095D01*
X132484761Y-23990714D01*
X132532380Y-24085952D01*
X132532380Y-24371666D01*
X132484761Y-24466904D01*
X132437142Y-24514523D01*
%TO.C,M2*%
X102610476Y-78088571D02*
X102277142Y-78088571D01*
X102277142Y-78612380D02*
X102277142Y-77612380D01*
X102753333Y-77612380D01*
X103562857Y-78612380D02*
X103562857Y-78088571D01*
X103515238Y-77993333D01*
X103420000Y-77945714D01*
X103229523Y-77945714D01*
X103134285Y-77993333D01*
X103562857Y-78564761D02*
X103467619Y-78612380D01*
X103229523Y-78612380D01*
X103134285Y-78564761D01*
X103086666Y-78469523D01*
X103086666Y-78374285D01*
X103134285Y-78279047D01*
X103229523Y-78231428D01*
X103467619Y-78231428D01*
X103562857Y-78183809D01*
X104039047Y-77945714D02*
X104039047Y-78612380D01*
X104039047Y-78040952D02*
X104086666Y-77993333D01*
X104181904Y-77945714D01*
X104324761Y-77945714D01*
X104420000Y-77993333D01*
X104467619Y-78088571D01*
X104467619Y-78612380D01*
X104705714Y-78707619D02*
X105467619Y-78707619D01*
X105562857Y-77612380D02*
X106134285Y-77612380D01*
X105848571Y-78612380D02*
X105848571Y-77612380D01*
X106896190Y-78612380D02*
X106896190Y-78088571D01*
X106848571Y-77993333D01*
X106753333Y-77945714D01*
X106562857Y-77945714D01*
X106467619Y-77993333D01*
X106896190Y-78564761D02*
X106800952Y-78612380D01*
X106562857Y-78612380D01*
X106467619Y-78564761D01*
X106420000Y-78469523D01*
X106420000Y-78374285D01*
X106467619Y-78279047D01*
X106562857Y-78231428D01*
X106800952Y-78231428D01*
X106896190Y-78183809D01*
X107800952Y-78564761D02*
X107705714Y-78612380D01*
X107515238Y-78612380D01*
X107420000Y-78564761D01*
X107372380Y-78517142D01*
X107324761Y-78421904D01*
X107324761Y-78136190D01*
X107372380Y-78040952D01*
X107420000Y-77993333D01*
X107515238Y-77945714D01*
X107705714Y-77945714D01*
X107800952Y-77993333D01*
X108229523Y-78612380D02*
X108229523Y-77612380D01*
X108658095Y-78612380D02*
X108658095Y-78088571D01*
X108610476Y-77993333D01*
X108515238Y-77945714D01*
X108372380Y-77945714D01*
X108277142Y-77993333D01*
X108229523Y-78040952D01*
X109277142Y-78612380D02*
X109181904Y-78564761D01*
X109134285Y-78517142D01*
X109086666Y-78421904D01*
X109086666Y-78136190D01*
X109134285Y-78040952D01*
X109181904Y-77993333D01*
X109277142Y-77945714D01*
X109420000Y-77945714D01*
X109515238Y-77993333D01*
X109562857Y-78040952D01*
X109610476Y-78136190D01*
X109610476Y-78421904D01*
X109562857Y-78517142D01*
X109515238Y-78564761D01*
X109420000Y-78612380D01*
X109277142Y-78612380D01*
X105010476Y-75912380D02*
X105010476Y-74912380D01*
X105343809Y-75626666D01*
X105677142Y-74912380D01*
X105677142Y-75912380D01*
X106105714Y-75007619D02*
X106153333Y-74960000D01*
X106248571Y-74912380D01*
X106486666Y-74912380D01*
X106581904Y-74960000D01*
X106629523Y-75007619D01*
X106677142Y-75102857D01*
X106677142Y-75198095D01*
X106629523Y-75340952D01*
X106058095Y-75912380D01*
X106677142Y-75912380D01*
%TO.C,M1*%
X92450476Y-78088571D02*
X92117142Y-78088571D01*
X92117142Y-78612380D02*
X92117142Y-77612380D01*
X92593333Y-77612380D01*
X93402857Y-78612380D02*
X93402857Y-78088571D01*
X93355238Y-77993333D01*
X93260000Y-77945714D01*
X93069523Y-77945714D01*
X92974285Y-77993333D01*
X93402857Y-78564761D02*
X93307619Y-78612380D01*
X93069523Y-78612380D01*
X92974285Y-78564761D01*
X92926666Y-78469523D01*
X92926666Y-78374285D01*
X92974285Y-78279047D01*
X93069523Y-78231428D01*
X93307619Y-78231428D01*
X93402857Y-78183809D01*
X93879047Y-77945714D02*
X93879047Y-78612380D01*
X93879047Y-78040952D02*
X93926666Y-77993333D01*
X94021904Y-77945714D01*
X94164761Y-77945714D01*
X94260000Y-77993333D01*
X94307619Y-78088571D01*
X94307619Y-78612380D01*
X94545714Y-78707619D02*
X95307619Y-78707619D01*
X95402857Y-77612380D02*
X95974285Y-77612380D01*
X95688571Y-78612380D02*
X95688571Y-77612380D01*
X96736190Y-78612380D02*
X96736190Y-78088571D01*
X96688571Y-77993333D01*
X96593333Y-77945714D01*
X96402857Y-77945714D01*
X96307619Y-77993333D01*
X96736190Y-78564761D02*
X96640952Y-78612380D01*
X96402857Y-78612380D01*
X96307619Y-78564761D01*
X96260000Y-78469523D01*
X96260000Y-78374285D01*
X96307619Y-78279047D01*
X96402857Y-78231428D01*
X96640952Y-78231428D01*
X96736190Y-78183809D01*
X97640952Y-78564761D02*
X97545714Y-78612380D01*
X97355238Y-78612380D01*
X97260000Y-78564761D01*
X97212380Y-78517142D01*
X97164761Y-78421904D01*
X97164761Y-78136190D01*
X97212380Y-78040952D01*
X97260000Y-77993333D01*
X97355238Y-77945714D01*
X97545714Y-77945714D01*
X97640952Y-77993333D01*
X98069523Y-78612380D02*
X98069523Y-77612380D01*
X98498095Y-78612380D02*
X98498095Y-78088571D01*
X98450476Y-77993333D01*
X98355238Y-77945714D01*
X98212380Y-77945714D01*
X98117142Y-77993333D01*
X98069523Y-78040952D01*
X99117142Y-78612380D02*
X99021904Y-78564761D01*
X98974285Y-78517142D01*
X98926666Y-78421904D01*
X98926666Y-78136190D01*
X98974285Y-78040952D01*
X99021904Y-77993333D01*
X99117142Y-77945714D01*
X99260000Y-77945714D01*
X99355238Y-77993333D01*
X99402857Y-78040952D01*
X99450476Y-78136190D01*
X99450476Y-78421904D01*
X99402857Y-78517142D01*
X99355238Y-78564761D01*
X99260000Y-78612380D01*
X99117142Y-78612380D01*
X94850476Y-75912380D02*
X94850476Y-74912380D01*
X95183809Y-75626666D01*
X95517142Y-74912380D01*
X95517142Y-75912380D01*
X96517142Y-75912380D02*
X95945714Y-75912380D01*
X96231428Y-75912380D02*
X96231428Y-74912380D01*
X96136190Y-75055238D01*
X96040952Y-75150476D01*
X95945714Y-75198095D01*
%TO.C,J1*%
X163147142Y-80805714D02*
X163194761Y-80853333D01*
X163242380Y-80996190D01*
X163242380Y-81091428D01*
X163194761Y-81234285D01*
X163099523Y-81329523D01*
X163004285Y-81377142D01*
X162813809Y-81424761D01*
X162670952Y-81424761D01*
X162480476Y-81377142D01*
X162385238Y-81329523D01*
X162290000Y-81234285D01*
X162242380Y-81091428D01*
X162242380Y-80996190D01*
X162290000Y-80853333D01*
X162337619Y-80805714D01*
X163242380Y-80234285D02*
X163194761Y-80329523D01*
X163147142Y-80377142D01*
X163051904Y-80424761D01*
X162766190Y-80424761D01*
X162670952Y-80377142D01*
X162623333Y-80329523D01*
X162575714Y-80234285D01*
X162575714Y-80091428D01*
X162623333Y-79996190D01*
X162670952Y-79948571D01*
X162766190Y-79900952D01*
X163051904Y-79900952D01*
X163147142Y-79948571D01*
X163194761Y-79996190D01*
X163242380Y-80091428D01*
X163242380Y-80234285D01*
X162575714Y-79472380D02*
X163242380Y-79472380D01*
X162670952Y-79472380D02*
X162623333Y-79424761D01*
X162575714Y-79329523D01*
X162575714Y-79186666D01*
X162623333Y-79091428D01*
X162718571Y-79043809D01*
X163242380Y-79043809D01*
X162575714Y-78567619D02*
X163242380Y-78567619D01*
X162670952Y-78567619D02*
X162623333Y-78520000D01*
X162575714Y-78424761D01*
X162575714Y-78281904D01*
X162623333Y-78186666D01*
X162718571Y-78139047D01*
X163242380Y-78139047D01*
X163337619Y-77900952D02*
X163337619Y-77139047D01*
X162242380Y-76710476D02*
X162242380Y-76615238D01*
X162290000Y-76520000D01*
X162337619Y-76472380D01*
X162432857Y-76424761D01*
X162623333Y-76377142D01*
X162861428Y-76377142D01*
X163051904Y-76424761D01*
X163147142Y-76472380D01*
X163194761Y-76520000D01*
X163242380Y-76615238D01*
X163242380Y-76710476D01*
X163194761Y-76805714D01*
X163147142Y-76853333D01*
X163051904Y-76900952D01*
X162861428Y-76948571D01*
X162623333Y-76948571D01*
X162432857Y-76900952D01*
X162337619Y-76853333D01*
X162290000Y-76805714D01*
X162242380Y-76710476D01*
X163242380Y-75424761D02*
X163242380Y-75996190D01*
X163242380Y-75710476D02*
X162242380Y-75710476D01*
X162385238Y-75805714D01*
X162480476Y-75900952D01*
X162528095Y-75996190D01*
X163242380Y-75091428D02*
X162575714Y-74567619D01*
X162575714Y-75091428D02*
X163242380Y-74567619D01*
X162242380Y-73996190D02*
X162242380Y-73900952D01*
X162290000Y-73805714D01*
X162337619Y-73758095D01*
X162432857Y-73710476D01*
X162623333Y-73662857D01*
X162861428Y-73662857D01*
X163051904Y-73710476D01*
X163147142Y-73758095D01*
X163194761Y-73805714D01*
X163242380Y-73900952D01*
X163242380Y-73996190D01*
X163194761Y-74091428D01*
X163147142Y-74139047D01*
X163051904Y-74186666D01*
X162861428Y-74234285D01*
X162623333Y-74234285D01*
X162432857Y-74186666D01*
X162337619Y-74139047D01*
X162290000Y-74091428D01*
X162242380Y-73996190D01*
X162242380Y-72805714D02*
X162242380Y-72996190D01*
X162290000Y-73091428D01*
X162337619Y-73139047D01*
X162480476Y-73234285D01*
X162670952Y-73281904D01*
X163051904Y-73281904D01*
X163147142Y-73234285D01*
X163194761Y-73186666D01*
X163242380Y-73091428D01*
X163242380Y-72900952D01*
X163194761Y-72805714D01*
X163147142Y-72758095D01*
X163051904Y-72710476D01*
X162813809Y-72710476D01*
X162718571Y-72758095D01*
X162670952Y-72805714D01*
X162623333Y-72900952D01*
X162623333Y-73091428D01*
X162670952Y-73186666D01*
X162718571Y-73234285D01*
X162813809Y-73281904D01*
X163337619Y-72520000D02*
X163337619Y-71758095D01*
X162718571Y-71186666D02*
X162718571Y-71520000D01*
X163242380Y-71520000D02*
X162242380Y-71520000D01*
X162242380Y-71043809D01*
X163194761Y-70281904D02*
X163242380Y-70377142D01*
X163242380Y-70567619D01*
X163194761Y-70662857D01*
X163099523Y-70710476D01*
X162718571Y-70710476D01*
X162623333Y-70662857D01*
X162575714Y-70567619D01*
X162575714Y-70377142D01*
X162623333Y-70281904D01*
X162718571Y-70234285D01*
X162813809Y-70234285D01*
X162909047Y-70710476D01*
X163242380Y-69805714D02*
X162575714Y-69805714D01*
X162670952Y-69805714D02*
X162623333Y-69758095D01*
X162575714Y-69662857D01*
X162575714Y-69520000D01*
X162623333Y-69424761D01*
X162718571Y-69377142D01*
X163242380Y-69377142D01*
X162718571Y-69377142D02*
X162623333Y-69329523D01*
X162575714Y-69234285D01*
X162575714Y-69091428D01*
X162623333Y-68996190D01*
X162718571Y-68948571D01*
X163242380Y-68948571D01*
X163242380Y-68043809D02*
X162718571Y-68043809D01*
X162623333Y-68091428D01*
X162575714Y-68186666D01*
X162575714Y-68377142D01*
X162623333Y-68472380D01*
X163194761Y-68043809D02*
X163242380Y-68139047D01*
X163242380Y-68377142D01*
X163194761Y-68472380D01*
X163099523Y-68520000D01*
X163004285Y-68520000D01*
X162909047Y-68472380D01*
X162861428Y-68377142D01*
X162861428Y-68139047D01*
X162813809Y-68043809D01*
X163242380Y-67424761D02*
X163194761Y-67520000D01*
X163099523Y-67567619D01*
X162242380Y-67567619D01*
X163194761Y-66662857D02*
X163242380Y-66758095D01*
X163242380Y-66948571D01*
X163194761Y-67043809D01*
X163099523Y-67091428D01*
X162718571Y-67091428D01*
X162623333Y-67043809D01*
X162575714Y-66948571D01*
X162575714Y-66758095D01*
X162623333Y-66662857D01*
X162718571Y-66615238D01*
X162813809Y-66615238D01*
X162909047Y-67091428D01*
X153336666Y-74867380D02*
X153336666Y-75581666D01*
X153289047Y-75724523D01*
X153193809Y-75819761D01*
X153050952Y-75867380D01*
X152955714Y-75867380D01*
X154336666Y-75867380D02*
X153765238Y-75867380D01*
X154050952Y-75867380D02*
X154050952Y-74867380D01*
X153955714Y-75010238D01*
X153860476Y-75105476D01*
X153765238Y-75153095D01*
%TO.C,A1*%
X113196666Y-42298095D02*
X113196666Y-41821904D01*
X113482380Y-42393333D02*
X112482380Y-42060000D01*
X113482380Y-41726666D01*
X113482380Y-41393333D02*
X112815714Y-41393333D01*
X113006190Y-41393333D02*
X112910952Y-41345714D01*
X112863333Y-41298095D01*
X112815714Y-41202857D01*
X112815714Y-41107619D01*
X113482380Y-40345714D02*
X112482380Y-40345714D01*
X113434761Y-40345714D02*
X113482380Y-40440952D01*
X113482380Y-40631428D01*
X113434761Y-40726666D01*
X113387142Y-40774285D01*
X113291904Y-40821904D01*
X113006190Y-40821904D01*
X112910952Y-40774285D01*
X112863333Y-40726666D01*
X112815714Y-40631428D01*
X112815714Y-40440952D01*
X112863333Y-40345714D01*
X112815714Y-39440952D02*
X113482380Y-39440952D01*
X112815714Y-39869523D02*
X113339523Y-39869523D01*
X113434761Y-39821904D01*
X113482380Y-39726666D01*
X113482380Y-39583809D01*
X113434761Y-39488571D01*
X113387142Y-39440952D01*
X113482380Y-38964761D02*
X112815714Y-38964761D01*
X112482380Y-38964761D02*
X112530000Y-39012380D01*
X112577619Y-38964761D01*
X112530000Y-38917142D01*
X112482380Y-38964761D01*
X112577619Y-38964761D01*
X112815714Y-38488571D02*
X113482380Y-38488571D01*
X112910952Y-38488571D02*
X112863333Y-38440952D01*
X112815714Y-38345714D01*
X112815714Y-38202857D01*
X112863333Y-38107619D01*
X112958571Y-38060000D01*
X113482380Y-38060000D01*
X113482380Y-37440952D02*
X113434761Y-37536190D01*
X113387142Y-37583809D01*
X113291904Y-37631428D01*
X113006190Y-37631428D01*
X112910952Y-37583809D01*
X112863333Y-37536190D01*
X112815714Y-37440952D01*
X112815714Y-37298095D01*
X112863333Y-37202857D01*
X112910952Y-37155238D01*
X113006190Y-37107619D01*
X113291904Y-37107619D01*
X113387142Y-37155238D01*
X113434761Y-37202857D01*
X113482380Y-37298095D01*
X113482380Y-37440952D01*
X113577619Y-36917142D02*
X113577619Y-36155238D01*
X113482380Y-35917142D02*
X112482380Y-35917142D01*
X113482380Y-35345714D01*
X112482380Y-35345714D01*
X113482380Y-34440952D02*
X112958571Y-34440952D01*
X112863333Y-34488571D01*
X112815714Y-34583809D01*
X112815714Y-34774285D01*
X112863333Y-34869523D01*
X113434761Y-34440952D02*
X113482380Y-34536190D01*
X113482380Y-34774285D01*
X113434761Y-34869523D01*
X113339523Y-34917142D01*
X113244285Y-34917142D01*
X113149047Y-34869523D01*
X113101428Y-34774285D01*
X113101428Y-34536190D01*
X113053809Y-34440952D01*
X112815714Y-33964761D02*
X113482380Y-33964761D01*
X112910952Y-33964761D02*
X112863333Y-33917142D01*
X112815714Y-33821904D01*
X112815714Y-33679047D01*
X112863333Y-33583809D01*
X112958571Y-33536190D01*
X113482380Y-33536190D01*
X113482380Y-32917142D02*
X113434761Y-33012380D01*
X113387142Y-33060000D01*
X113291904Y-33107619D01*
X113006190Y-33107619D01*
X112910952Y-33060000D01*
X112863333Y-33012380D01*
X112815714Y-32917142D01*
X112815714Y-32774285D01*
X112863333Y-32679047D01*
X112910952Y-32631428D01*
X113006190Y-32583809D01*
X113291904Y-32583809D01*
X113387142Y-32631428D01*
X113434761Y-32679047D01*
X113482380Y-32774285D01*
X113482380Y-32917142D01*
X113577619Y-32393333D02*
X113577619Y-31631428D01*
X112815714Y-31488571D02*
X113482380Y-31250476D01*
X112815714Y-31012380D01*
X112482380Y-30726666D02*
X112482380Y-30107619D01*
X112863333Y-30440952D01*
X112863333Y-30298095D01*
X112910952Y-30202857D01*
X112958571Y-30155238D01*
X113053809Y-30107619D01*
X113291904Y-30107619D01*
X113387142Y-30155238D01*
X113434761Y-30202857D01*
X113482380Y-30298095D01*
X113482380Y-30583809D01*
X113434761Y-30679047D01*
X113387142Y-30726666D01*
X113387142Y-29679047D02*
X113434761Y-29631428D01*
X113482380Y-29679047D01*
X113434761Y-29726666D01*
X113387142Y-29679047D01*
X113482380Y-29679047D01*
X113482380Y-29298095D02*
X112815714Y-28774285D01*
X112815714Y-29298095D02*
X113482380Y-28774285D01*
X115736666Y-36274285D02*
X115736666Y-35798095D01*
X116022380Y-36369523D02*
X115022380Y-36036190D01*
X116022380Y-35702857D01*
X116022380Y-34845714D02*
X116022380Y-35417142D01*
X116022380Y-35131428D02*
X115022380Y-35131428D01*
X115165238Y-35226666D01*
X115260476Y-35321904D01*
X115308095Y-35417142D01*
%TD*%
M02*
