%TF.GenerationSoftware,KiCad,Pcbnew,(5.1.10)-1*%
%TF.CreationDate,2021-06-07T21:45:38+02:00*%
%TF.ProjectId,SteuerungPCB,53746575-6572-4756-9e67-5043422e6b69,rev?*%
%TF.SameCoordinates,Original*%
%TF.FileFunction,Soldermask,Bot*%
%TF.FilePolarity,Negative*%
%FSLAX46Y46*%
G04 Gerber Fmt 4.6, Leading zero omitted, Abs format (unit mm)*
G04 Created by KiCad (PCBNEW (5.1.10)-1) date 2021-06-07 21:45:38*
%MOMM*%
%LPD*%
G01*
G04 APERTURE LIST*
%ADD10O,1.778000X3.556000*%
%ADD11O,3.756000X1.778000*%
%ADD12O,3.556000X1.778000*%
%ADD13C,1.800000*%
%ADD14C,4.200000*%
%ADD15O,1.700000X1.700000*%
%ADD16R,1.700000X1.700000*%
%ADD17C,1.700000*%
%ADD18C,5.600000*%
%ADD19R,2.000000X2.000000*%
%ADD20O,3.500000X3.500000*%
%ADD21R,1.905000X2.000000*%
%ADD22O,1.905000X2.000000*%
%ADD23O,1.730000X2.030000*%
%ADD24R,1.730000X2.030000*%
%ADD25R,1.600000X1.600000*%
%ADD26O,1.600000X1.600000*%
G04 APERTURE END LIST*
D10*
%TO.C,Vin1*%
X90350000Y-23450000D03*
D11*
X95250000Y-26400000D03*
D12*
X95250000Y-20400000D03*
%TD*%
D13*
%TO.C,RV1*%
X128190000Y-96520000D03*
X125690000Y-96520000D03*
X123190000Y-96520000D03*
X128190000Y-94020000D03*
X125690000Y-94020000D03*
X123190000Y-94020000D03*
D14*
X130440000Y-90720000D03*
X120940000Y-90720000D03*
%TD*%
D15*
%TO.C,USR-ES1_W5500*%
X162560000Y-30480000D03*
X142240000Y-30480000D03*
X162560000Y-27940000D03*
X142240000Y-27940000D03*
X162560000Y-25400000D03*
X142240000Y-25400000D03*
X162560000Y-22860000D03*
X142240000Y-22860000D03*
X162560000Y-20320000D03*
X142240000Y-20320000D03*
X162560000Y-17780000D03*
D16*
X142240000Y-17780000D03*
%TD*%
D17*
%TO.C,U2*%
X93980000Y-90170000D03*
X96520000Y-90170000D03*
X99060000Y-90170000D03*
X101600000Y-90170000D03*
X104140000Y-90170000D03*
X104140000Y-97790000D03*
X101600000Y-97790000D03*
X99060000Y-97790000D03*
X96520000Y-97790000D03*
D16*
X93980000Y-97790000D03*
%TD*%
D18*
%TO.C,REF\u002A\u002A*%
X168910000Y-15240000D03*
%TD*%
%TO.C,REF\u002A\u002A*%
X168910000Y-104140000D03*
%TD*%
%TO.C,REF\u002A\u002A*%
X83820000Y-104140000D03*
%TD*%
%TO.C,REF\u002A\u002A*%
X83820000Y-15240000D03*
%TD*%
D19*
%TO.C,TP_Tacho_3*%
X113030000Y-81280000D03*
%TD*%
D20*
%TO.C,U1*%
X95250000Y-37950000D03*
D21*
X97790000Y-54610000D03*
D22*
X95250000Y-54610000D03*
X92710000Y-54610000D03*
%TD*%
D20*
%TO.C,Q3*%
X160020000Y-57300000D03*
D21*
X157480000Y-40640000D03*
D22*
X160020000Y-40640000D03*
X162560000Y-40640000D03*
%TD*%
D20*
%TO.C,Q2*%
X146050000Y-57300000D03*
D21*
X143510000Y-40640000D03*
D22*
X146050000Y-40640000D03*
X148590000Y-40640000D03*
%TD*%
D20*
%TO.C,Q1*%
X132080000Y-57300000D03*
D21*
X129540000Y-40640000D03*
D22*
X132080000Y-40640000D03*
X134620000Y-40640000D03*
%TD*%
D23*
%TO.C,M3*%
X118610000Y-73660000D03*
X116070000Y-73660000D03*
D24*
X113530000Y-73660000D03*
%TD*%
D15*
%TO.C,U3*%
X129540000Y-30480000D03*
X132080000Y-30480000D03*
D16*
X134620000Y-30480000D03*
%TD*%
D23*
%TO.C,M2*%
X108450000Y-73660000D03*
X105910000Y-73660000D03*
D24*
X103370000Y-73660000D03*
%TD*%
D23*
%TO.C,M1*%
X98290000Y-73660000D03*
X95750000Y-73660000D03*
D24*
X93210000Y-73660000D03*
%TD*%
D15*
%TO.C,J1*%
X160020000Y-69640000D03*
X157480000Y-69640000D03*
X154940000Y-69640000D03*
X152400000Y-69640000D03*
X149860000Y-69640000D03*
D16*
X147320000Y-69640000D03*
%TD*%
D25*
%TO.C,A1*%
X121920000Y-54610000D03*
D26*
X106680000Y-21590000D03*
X121920000Y-52070000D03*
X106680000Y-24130000D03*
X121920000Y-49530000D03*
X106680000Y-26670000D03*
X121920000Y-46990000D03*
X106680000Y-29210000D03*
X121920000Y-44450000D03*
X106680000Y-31750000D03*
X121920000Y-41910000D03*
X106680000Y-34290000D03*
X121920000Y-39370000D03*
X106680000Y-36830000D03*
X121920000Y-36830000D03*
X106680000Y-39370000D03*
X121920000Y-34290000D03*
X106680000Y-41910000D03*
X121920000Y-31750000D03*
X106680000Y-44450000D03*
X121920000Y-29210000D03*
X106680000Y-46990000D03*
X121920000Y-26670000D03*
X106680000Y-49530000D03*
X121920000Y-24130000D03*
X106680000Y-52070000D03*
X121920000Y-21590000D03*
X106680000Y-54610000D03*
X121920000Y-19050000D03*
X106680000Y-19050000D03*
%TD*%
M02*
